<svg width="150" height="114" viewBox="0 0 150 114" fill="none" xmlns="http://www.w3.org/2000/svg">
<g clip-path="url(#clip0)">
<circle cx="54.5" cy="59.6228" r="54.5" fill="#2253FF"/>
<g clip-path="url(#clip1)">
<path d="M67.7847 34.5062L67.9535 106.607C67.9535 109.004 68.8143 110.692 70.1645 111.485L64.8312 108.379C63.4641 107.586 62.6202 105.898 62.6202 103.502L62.4514 31.4176L67.7847 34.5062Z" fill="white"/>
<path d="M70.1816 112.329C70.0297 112.329 69.8947 112.295 69.7597 112.211L64.4263 109.105C62.7386 108.126 61.7934 106.135 61.7934 103.502L61.6078 31.4175C61.6078 31.1137 61.7597 30.8268 62.0297 30.6918C62.2998 30.5399 62.6204 30.5399 62.8736 30.6918L68.2069 33.7973C68.4601 33.9492 68.6289 34.2192 68.6289 34.523L68.7976 106.624C68.7976 108.633 69.439 110.101 70.6035 110.776C71.0086 111.012 71.1436 111.519 70.9073 111.924C70.7554 112.177 70.4685 112.329 70.1816 112.329ZM63.2955 32.8859L63.4643 103.519C63.4643 105.527 64.1057 106.995 65.2702 107.67L67.3968 108.903C67.2111 108.211 67.1268 107.451 67.1268 106.624L66.958 35.0125L63.2955 32.8859Z" fill="#0C5AE5"/>
<path d="M95.0089 3.89019C97.1354 2.67501 99.0426 2.55686 100.427 3.36699L105.76 6.47247C104.376 5.66234 102.469 5.78048 100.342 6.99567L75.3633 21.3754L70.03 18.2868L95.0089 3.89019Z" fill="white"/>
<path d="M75.3805 22.2193C75.2286 22.2193 75.0936 22.1855 74.9585 22.1011L69.6252 18.9956C69.3552 18.8606 69.1864 18.5737 69.1864 18.2868C69.1864 17.983 69.3552 17.713 69.6083 17.5611L94.5872 3.18135C96.8994 1.84802 99.1272 1.66237 100.849 2.65815L106.182 5.76362C106.587 5.99991 106.722 6.50624 106.486 6.9113C106.25 7.31636 105.726 7.45138 105.338 7.21509C104.174 6.53999 102.553 6.72564 100.764 7.7383L75.7855 22.1349C75.6674 22.1855 75.5155 22.2193 75.3805 22.2193ZM71.718 18.2868L75.3805 20.4134L99.9374 6.26995C100.68 5.83113 101.423 5.52734 102.131 5.34168L100.005 4.10962C98.8234 3.43452 97.2032 3.62017 95.431 4.63282L71.718 18.2868Z" fill="#0C5AE5"/>
<path d="M67.7852 34.5229L67.9371 97.6788L67.9539 106.624C67.9708 111.451 71.3801 113.392 75.5826 110.978L100.561 96.5987C104.764 94.1683 108.156 88.2949 108.139 83.4679L108.123 74.5059L107.988 11.35C107.971 6.523 104.561 4.58208 100.359 6.99558L75.3801 21.3753C71.1776 23.8056 67.7852 29.6791 67.7852 34.5229Z" fill="#D4DDFC"/>
<path d="M72.1904 112.852C71.3128 112.852 70.5026 112.649 69.7769 112.228C68.0723 111.249 67.1271 109.257 67.1271 106.607L66.9415 34.5231C66.9246 29.4261 70.5195 23.2151 74.9583 20.6497L99.9371 6.27005C102.249 4.93672 104.46 4.75106 106.182 5.72996C107.886 6.70886 108.832 8.70042 108.832 11.3502L109 83.4512C109.017 88.5314 105.422 94.7424 101 97.3077L76.0216 111.687C74.6883 112.464 73.3718 112.852 72.1904 112.852ZM68.6292 34.5062L68.8149 106.607C68.8149 108.616 69.4562 110.101 70.6208 110.759C71.7853 111.434 73.4056 111.249 75.1777 110.219L100.157 95.8394C104.123 93.544 107.33 87.9913 107.313 83.4512L107.144 11.3502C107.144 9.34177 106.503 7.87342 105.338 7.19831C104.173 6.52321 102.553 6.70886 100.781 7.7384L75.8022 22.1181C71.836 24.3966 68.6292 29.9662 68.6292 34.5062Z" fill="#0C5AE5"/>
<path d="M73.7256 22.5397C73.6244 22.6241 73.5231 22.7085 73.4218 22.8097C73.2699 22.9447 73.1012 23.0966 72.9493 23.2485C72.848 23.3498 72.7467 23.4511 72.6455 23.5523C72.4936 23.7042 72.3417 23.8561 72.2067 24.0249C72.1223 24.1262 72.021 24.2274 71.9366 24.3287C71.7172 24.5819 71.4978 24.8519 71.2953 25.122C71.2446 25.1726 71.2109 25.2401 71.1603 25.2907C70.924 25.6114 70.6877 25.9658 70.4683 26.3034C70.4176 26.3878 70.3501 26.489 70.2995 26.5734C70.1307 26.8435 69.9788 27.1135 69.8269 27.3835C69.7594 27.5017 69.7088 27.603 69.6413 27.7211C69.4725 28.0418 69.3206 28.3624 69.1687 28.6831C69.1518 28.7338 69.1181 28.7844 69.0843 28.8519C69.0674 28.9025 69.0506 28.9532 69.0337 29.0038C68.9324 29.2401 68.8311 29.4764 68.7468 29.7127C68.713 29.797 68.6792 29.8983 68.6455 29.9827C68.578 30.1852 68.4936 30.4046 68.443 30.6072C68.4092 30.6916 68.3923 30.7759 68.3586 30.8603C68.2742 31.1473 68.1898 31.4342 68.1223 31.7211C68.1223 31.7548 68.1054 31.7886 68.1054 31.8055C68.0548 32.0586 68.0041 32.3118 67.9535 32.565C67.9366 32.6494 67.9198 32.7337 67.9198 32.8181C67.886 33.0207 67.8691 33.2232 67.8522 33.4426C67.8522 33.527 67.8354 33.6114 67.8354 33.6958C67.8185 33.9658 67.8016 34.2527 67.8016 34.5228L62.4514 31.4173C62.4514 31.1473 62.4683 30.8603 62.4852 30.5903C62.4852 30.5059 62.502 30.4215 62.502 30.3371C62.5189 30.1346 62.5527 29.9321 62.5696 29.7127C62.5864 29.6283 62.5864 29.5439 62.6033 29.4595C62.6539 29.2063 62.6877 28.9532 62.7552 28.7C62.7552 28.6662 62.7721 28.6325 62.7721 28.6156C62.8396 28.3287 62.924 28.0418 63.0084 27.7549C63.0253 27.6705 63.059 27.5861 63.0928 27.5017C63.1603 27.2992 63.2278 27.0798 63.3122 26.8772C63.3459 26.7928 63.3797 26.6916 63.4134 26.6072C63.4978 26.3709 63.5991 26.1346 63.7004 25.8983C63.7172 25.8477 63.7341 25.7971 63.7679 25.7464C63.7679 25.7295 63.7847 25.7127 63.7847 25.7127C63.7847 25.662 63.8016 25.6283 63.8354 25.5776C63.9704 25.257 64.1392 24.9363 64.308 24.6156C64.3586 24.4975 64.4261 24.3962 64.4936 24.2781C64.6455 24.008 64.7974 23.738 64.9662 23.4679C65.0168 23.3836 65.0843 23.2823 65.135 23.1979C65.3544 22.8435 65.5906 22.5059 65.8269 22.1853C65.8776 22.1346 65.9113 22.0671 65.962 22.0165C66.1645 21.7464 66.3839 21.4764 66.6033 21.2232C66.6371 21.1726 66.6708 21.122 66.7046 21.0713C66.7552 21.0207 66.8058 20.9532 66.8565 20.9026C67.0084 20.7507 67.1434 20.5819 67.2953 20.43C67.3965 20.3287 67.4978 20.2275 67.5991 20.1262C67.751 19.9743 67.9198 19.8393 68.0717 19.6874C68.1729 19.603 68.2742 19.5017 68.3754 19.4173C68.5611 19.2654 68.7299 19.1304 68.9155 18.9954C69.0168 18.9448 69.1181 18.8772 69.2025 18.8097C69.4725 18.6241 69.7594 18.4384 70.0295 18.2697L75.3628 21.3751C75.0759 21.5439 74.8058 21.7127 74.5358 21.9152C74.4514 21.9827 74.3501 22.0502 74.2657 22.1177C74.097 22.2528 73.9113 22.3878 73.7256 22.5397Z" fill="white"/>
<path d="M67.785 35.3498C67.6331 35.3498 67.4981 35.3161 67.363 35.2317L62.0297 32.1262C61.7597 31.9912 61.6078 31.7043 61.6078 31.4174C61.6078 31.1304 61.6247 30.8266 61.6415 30.5228L61.6584 30.3203C61.6753 30.0503 61.7091 29.8309 61.7428 29.5946L61.7766 29.3245C61.8272 29.0545 61.8778 28.7844 61.9285 28.5144C62.0129 28.1262 62.0972 27.8224 62.1816 27.5186L62.266 27.2655C62.3335 27.0461 62.401 26.8266 62.4854 26.6072L62.5867 26.3203C62.6711 26.084 62.7723 25.8309 62.8736 25.5946C62.8736 25.5777 62.9411 25.4258 62.9411 25.4258C63.1605 24.9364 63.3293 24.5988 63.4981 24.2613L63.6837 23.9068C63.8356 23.6199 64.0044 23.333 64.1901 23.0461L64.3757 22.7592C64.5951 22.4047 64.8483 22.0503 65.1014 21.6959L65.2365 21.5102C65.4559 21.2233 65.6753 20.9532 65.9116 20.6832L66.0297 20.5482C66.0297 20.5482 66.1985 20.3794 66.1985 20.3625C66.3504 20.1938 66.5023 20.025 66.6711 19.8731L66.9917 19.5524C67.1605 19.3836 67.3293 19.2317 67.4981 19.0967L67.8525 18.7929C68.0381 18.641 68.2407 18.4891 68.4263 18.3372L68.7133 18.1178C69.017 17.9153 69.304 17.7128 69.6078 17.544C69.8778 17.3921 70.1985 17.3921 70.4516 17.544L75.785 20.6495C76.0381 20.8014 76.2069 21.0714 76.2069 21.3752C76.2069 21.679 76.0381 21.949 75.785 22.1009C75.5149 22.2528 75.2618 22.4216 75.0086 22.5904C75.0086 22.5904 74.7723 22.776 74.7554 22.776C74.5867 22.8942 74.4179 23.0292 74.2491 23.1642L74.0466 23.333C73.8103 23.5355 73.6753 23.6705 73.5234 23.8056L73.2533 24.1262C73.1014 24.2781 72.9664 24.4132 72.8314 24.5651L72.5782 24.8689C72.3757 25.1051 72.1732 25.3583 71.9706 25.6115L71.8356 25.7802C71.5993 26.1009 71.3799 26.4216 71.1605 26.7423L71.0592 26.911C70.8398 27.2655 70.6879 27.5186 70.536 27.7887L70.3673 28.1093C70.2154 28.4131 70.0635 28.7169 69.9284 29.0207L69.8609 29.1726C69.709 29.5271 69.6246 29.7633 69.5403 29.9828L69.4727 30.1853C69.3715 30.4553 69.304 30.6579 69.2533 30.8604L69.1858 31.0967C69.1014 31.3667 69.0339 31.6368 68.9664 31.9068C68.8989 32.2275 68.8483 32.4638 68.8145 32.7001L68.7808 32.9363C68.747 33.1389 68.7301 33.3245 68.7133 33.5102L68.6964 33.7465C68.6795 33.9996 68.6626 34.2697 68.6626 34.5228C68.6626 34.8266 68.4938 35.0967 68.2407 35.2486C68.0719 35.3161 67.9369 35.3498 67.785 35.3498ZM63.3124 30.9279L67.0424 33.0882C67.0592 32.9363 67.0761 32.8182 67.093 32.6832L67.1268 32.4131C67.1774 32.1431 67.228 31.873 67.2787 31.603C67.363 31.2148 67.4474 30.911 67.5318 30.6072L67.6162 30.3541C67.6837 30.1347 67.7681 29.9152 67.8356 29.6958L67.9369 29.4089C68.0213 29.1726 68.1225 28.9195 68.2238 28.6832L68.2913 28.5313L68.3757 28.3625C68.5276 28.025 68.6964 27.6874 68.8652 27.3499L69.0508 26.9954C69.2027 26.7085 69.3715 26.4216 69.5571 26.1515L69.7428 25.8646C69.9791 25.5102 70.2154 25.1558 70.4685 24.8013L70.6035 24.6157C70.8229 24.3288 71.0424 24.0587 71.2786 23.7887L71.5656 23.468C71.7175 23.2992 71.8694 23.1305 72.0381 22.9786L72.3588 22.6579C72.5276 22.4891 72.6964 22.3541 72.8651 22.2022L73.1858 21.9153C73.3715 21.7634 73.574 21.6115 73.7596 21.4596H73.7765L70.0466 19.2655C69.9284 19.3499 69.8103 19.4174 69.6922 19.5187L69.5403 19.603C69.2533 19.8056 69.0846 19.9406 68.9327 20.0756L68.747 20.2444C68.4938 20.4638 68.3419 20.5988 68.2069 20.7338L67.92 21.0208C67.7681 21.1727 67.6331 21.3077 67.4981 21.4596L67.3462 21.6284C67.0424 21.9997 66.8398 22.2359 66.6373 22.506L66.5023 22.6748C66.266 22.9954 66.0466 23.3161 65.8272 23.6368L65.7259 23.8056C65.5065 24.16 65.3546 24.4132 65.2196 24.6832L65.0508 25.0039C64.8989 25.3077 64.747 25.6115 64.612 25.9153L64.5276 26.084C64.3757 26.4216 64.2913 26.6579 64.2069 26.8773L64.1394 27.0461C64.0382 27.333 63.9707 27.5355 63.9031 27.738L63.8356 27.9743C63.7512 28.2444 63.6837 28.5144 63.6162 28.7844C63.5487 29.1051 63.4981 29.3414 63.4643 29.5777L63.4306 29.8309C63.3968 30.0165 63.3799 30.2022 63.3631 30.3878L63.3462 30.6241C63.3124 30.7422 63.3124 30.8435 63.3124 30.9279Z" fill="#0C5AE5"/>
<path d="M73.2031 34.5062C73.2031 31.6202 75.566 27.5358 78.0807 26.0843L100.038 13.443C101.169 12.8016 102.57 13.6118 102.57 14.8945L102.705 78.3711L73.3381 95.2824L73.2031 34.5062Z" fill="white"/>
<path d="M73.3378 96.1262C73.1859 96.1262 73.0509 96.0924 72.9158 96.0081C72.6627 95.8562 72.4939 95.5861 72.4939 95.2823L72.3589 34.5061C72.3589 31.3163 74.8736 26.945 77.6584 25.3416L99.6162 12.7003C100.409 12.2446 101.355 12.2446 102.148 12.7003C102.941 13.156 103.414 13.9661 103.414 14.8944L103.549 78.371C103.549 78.6748 103.397 78.9448 103.127 79.0967L73.7597 96.0249C73.6247 96.0924 73.4897 96.1262 73.3378 96.1262ZM74.0466 34.5061L74.1817 93.8308L101.861 77.8815L101.726 14.8944C101.726 14.4556 101.439 14.2362 101.304 14.1686C101.169 14.1011 100.831 13.9492 100.46 14.1686L78.5023 26.81C76.2576 28.1095 74.0466 31.9239 74.0466 34.5061Z" fill="#0C5AE5"/>
<path d="M94.6704 91.7548L84.7126 97.4931L94.6704 91.7548Z" fill="white"/>
<path d="M84.7127 98.3538C84.4258 98.3538 84.1389 98.2019 83.987 97.9319C83.7507 97.5268 83.8857 97.0205 84.2908 96.7842L94.2486 91.0458C94.6536 90.8095 95.16 90.9446 95.3962 91.3496C95.6325 91.7547 95.4975 92.261 95.0924 92.4973L85.1347 98.2357C84.9996 98.3032 84.8478 98.3538 84.7127 98.3538Z" fill="#0C5AE5"/>
<path d="M88.4603 78.2191C87.9878 78.2191 87.6165 77.8478 87.6165 77.3752V33.9661C87.6165 33.4935 87.9878 33.1222 88.4603 33.1222C88.9329 33.1222 89.3042 33.4935 89.3042 33.9661V77.3583C89.3042 77.8309 88.9329 78.2191 88.4603 78.2191Z" fill="#0C5AE5"/>
<path d="M83.5488 47.6707C83.4644 47.6707 83.3631 47.6538 83.2788 47.6201C82.8399 47.4682 82.6037 46.9956 82.7555 46.5568L87.6838 31.8733C87.7851 31.5695 88.0551 31.3501 88.3758 31.2994C88.6965 31.2488 89.0171 31.4007 89.1859 31.6876L93.861 39.0294C94.1142 39.4175 93.996 39.9407 93.6078 40.1939C93.2197 40.4471 92.6964 40.3289 92.4433 39.9407L88.7133 34.0842L84.342 47.0968C84.2239 47.4513 83.8863 47.6707 83.5488 47.6707Z" fill="#0C5AE5"/>
</g>
</g>
<defs>
<clipPath id="clip0">
<rect width="150" height="114" fill="white"/>
</clipPath>
<clipPath id="clip1">
<rect x="61.6078" y="2" width="47.3923" height="110.852" fill="white"/>
</clipPath>
</defs>
</svg>
