<svg width="586" height="480" viewBox="0 0 586 480" fill="none" xmlns="http://www.w3.org/2000/svg">
<g filter="url(#filter0_ddd)">
<rect x="45.627" y="37" width="418.267" height="376" rx="17.2144" fill="white"/>
</g>
<rect x="61.0093" y="76.52" width="386.074" height="25.4272" rx="12.3704" fill="#F3F6FC"/>
<rect x="72.9873" y="85.6511" width="112.93" height="7.15494" rx="3.57747" fill="#C0C9E2"/>
<rect x="188.817" y="85.6511" width="32.0676" height="7.15494" rx="3.57747" fill="#C0C9E2"/>
<rect x="61.0093" y="108.966" width="189.02" height="211.403" rx="10.3911" fill="#F2F4F8"/>
<circle cx="67.1488" cy="57.6367" r="6.13948" fill="#F8334A"/>
<circle cx="85.3655" cy="57.6367" r="6.13948" fill="#F7C31D"/>
<circle cx="103.581" cy="57.6367" r="6.13948" fill="#38D535"/>
<rect x="93.7188" y="337.809" width="109.749" height="5.54909" rx="2.77454" fill="#C0C9E2"/>
<rect x="303.351" y="337.809" width="70.2884" height="5.54909" rx="2.77454" fill="#C0C9E2"/>
<rect x="93.7188" y="371.104" width="127.012" height="6.16565" rx="3.08283" fill="#C0C9E2"/>
<rect x="303.351" y="371.104" width="117.147" height="6.16565" rx="3.08283" fill="#C0C9E2"/>
<rect x="93.9102" y="348.069" width="66.8362" height="5.87571" rx="2.93785" fill="#E4E8F4"/>
<rect x="303.351" y="348.291" width="120.847" height="5.54909" rx="2.77454" fill="#E4E8F4"/>
<rect x="303.351" y="382.202" width="78.9203" height="6.16565" rx="3.08283" fill="#E4E8F4"/>
<rect x="93.7188" y="381.585" width="75.2209" height="5.54909" rx="2.77454" fill="#E4E8F4"/>
<rect x="119.569" y="288.008" width="66.0811" height="5.87571" rx="2.93785" fill="#E4E7ED"/>
<circle cx="74.1643" cy="345.814" r="13.155" fill="#DDE9FE"/>
<path d="M76.9156 342.375C76.9156 343.895 75.6853 345.126 74.1648 345.126C72.6444 345.126 71.4141 343.895 71.4141 342.375C71.4141 340.854 72.6444 339.624 74.1648 339.624C75.6853 339.624 76.9156 340.854 76.9156 342.375Z" fill="#3180FF"/>
<path d="M74.1649 347.189C72.0991 347.189 67.9756 348.226 67.9756 350.283V351.315C67.9756 351.694 68.2845 352.003 68.6633 352.003H79.6664C80.0452 352.003 80.3541 351.694 80.3541 351.315V350.283C80.3541 348.226 76.2306 347.189 74.1649 347.189Z" fill="#3180FF"/>
<circle cx="283.382" cy="345.814" r="13.155" fill="#DDE9FE"/>
<path d="M286.133 342.375C286.133 343.895 284.903 345.126 283.382 345.126C281.862 345.126 280.631 343.895 280.631 342.375C280.631 340.855 281.862 339.624 283.382 339.624C284.903 339.624 286.133 340.855 286.133 342.375Z" fill="#3180FF"/>
<path d="M283.382 347.189C281.316 347.189 277.193 348.226 277.193 350.283V351.315C277.193 351.694 277.502 352.003 277.881 352.003H288.884C289.262 352.003 289.571 351.694 289.571 351.315V350.283C289.571 348.226 285.448 347.189 283.382 347.189Z" fill="#3180FF"/>
<circle cx="74.1643" cy="379.24" r="13.155" fill="#DDE9FE"/>
<path d="M76.9156 375.801C76.9156 377.321 75.6853 378.552 74.1648 378.552C72.6444 378.552 71.4141 377.321 71.4141 375.801C71.4141 374.281 72.6444 373.05 74.1648 373.05C75.6853 373.05 76.9156 374.281 76.9156 375.801Z" fill="#3180FF"/>
<path d="M74.1649 380.615C72.0991 380.615 67.9756 381.652 67.9756 383.71V384.741C67.9756 385.12 68.2845 385.429 68.6633 385.429H79.6664C80.0452 385.429 80.3541 385.12 80.3541 384.741V383.71C80.3541 381.652 76.2306 380.615 74.1649 380.615Z" fill="#3180FF"/>
<circle cx="283.382" cy="379.24" r="13.155" fill="#DDE9FE"/>
<path d="M286.133 375.801C286.133 377.321 284.903 378.552 283.382 378.552C281.862 378.552 280.631 377.321 280.631 375.801C280.631 374.28 281.862 373.05 283.382 373.05C284.903 373.05 286.133 374.28 286.133 375.801Z" fill="#3180FF"/>
<path d="M283.382 380.615C281.316 380.615 277.193 381.652 277.193 383.71V384.741C277.193 385.12 277.502 385.429 277.881 385.429H288.884C289.262 385.429 289.571 385.12 289.571 384.741V383.71C289.571 381.652 285.448 380.615 283.382 380.615Z" fill="#3180FF"/>
<path d="M193.684 320.369H221.279V197.047C221.279 194.314 219.064 192.098 216.331 192.098H198.632C195.899 192.098 193.684 194.314 193.684 197.047V320.369Z" fill="#0B63F4"/>
<path d="M159.16 320.369H186.756V231.332C186.756 228.6 184.541 226.384 181.808 226.384H164.108C161.376 226.384 159.16 228.6 159.16 231.332V320.369Z" fill="#FF3868"/>
<path d="M124.636 320.369H152.232V159.725C152.232 156.992 150.017 154.777 147.284 154.777H129.584C126.852 154.777 124.636 156.992 124.636 159.725V320.369Z" fill="#0B63F4"/>
<path d="M89.7598 320.369H117.709V197.047C117.709 194.314 115.494 192.098 112.761 192.098H94.7079C91.9751 192.098 89.7598 194.314 89.7598 197.047V320.369Z" fill="#6938F5"/>
<rect x="258.063" y="108.966" width="189.02" height="211.403" rx="10.3911" fill="#F2F4F8"/>
<path fill-rule="evenodd" clip-rule="evenodd" d="M351.841 215.581V160.665C321.826 161.033 297.607 185.479 297.607 215.581L297.608 215.581C297.608 243.606 318.598 266.728 345.715 270.083L352.528 215.581H351.841Z" fill="#FF3868"/>
<path fill-rule="evenodd" clip-rule="evenodd" d="M405.894 202.188L351.69 215.959V160.669C351.92 160.666 352.15 160.665 352.38 160.665C378.15 160.665 399.799 178.316 405.894 202.188Z" fill="#0B63F4"/>
<path fill-rule="evenodd" clip-rule="evenodd" d="M352.013 270.753H352.645C382.963 270.583 407.494 245.975 407.539 215.627V215.461C407.532 210.872 406.965 206.414 405.903 202.152L351.901 215.729L345.477 270.333C347.62 270.598 349.801 270.741 352.013 270.753Z" fill="#6938F5"/>
<g filter="url(#filter1_d)">
<rect x="402.195" y="86.995" width="143.401" height="258.131" rx="11.4763" fill="white"/>
<rect x="402.359" y="87.1587" width="143.073" height="257.803" rx="11.3125" stroke="#C5CCD8" stroke-opacity="0.3" stroke-width="0.327481"/>
<rect x="410.831" y="114.108" width="126.13" height="221.945" rx="11.4763" fill="#EFF4FA"/>
<circle cx="414.574" cy="101.4" r="3.7427" fill="#F8334A"/>
<circle cx="426.877" cy="101.4" r="3.7427" fill="#F6C31D"/>
<circle cx="439.18" cy="101.4" r="3.7427" fill="#38D435"/>
<rect x="427.526" y="139.881" width="92.7403" height="6.68308" rx="3.34154" fill="#93A9CC"/>
<rect x="442.351" y="152.797" width="63.0917" height="6.68496" rx="3.34248" fill="#93A9CC"/>
<rect x="428.775" y="173.193" width="90.2425" height="5.87571" rx="2.93785" fill="#C6D0E2"/>
<rect x="428.775" y="185.997" width="90.2425" height="5.87571" rx="2.93785" fill="#C6D0E2"/>
<rect x="441.039" y="198.464" width="65.7149" height="5.87571" rx="2.93785" fill="#C6D0E2"/>
<rect x="430.208" y="218.215" width="87.3753" height="21.5017" rx="1.97926" fill="#2173F7"/>
<path d="M512.287 268.437C512.287 272.96 508.622 276.626 504.099 276.626C499.576 276.626 495.91 272.96 495.91 268.437C495.91 263.914 499.576 260.248 504.099 260.248C508.622 260.248 512.287 263.914 512.287 268.437Z" fill="#C6D0E2"/>
<path fill-rule="evenodd" clip-rule="evenodd" d="M461.524 270.809C462.311 269.665 464 269.665 464.786 270.809L482.71 296.88C482.898 297.154 483.297 297.168 483.504 296.909L491.635 286.746C492.427 285.756 493.934 285.756 494.726 286.746L512.444 308.894C513.481 310.19 512.558 312.109 510.899 312.109H493.18C493.18 312.109 493.18 312.109 493.18 312.109C493.18 312.109 493.18 312.109 493.18 312.109H436.893C435.3 312.109 434.359 310.322 435.262 309.009L461.524 270.809Z" fill="#C6D0E2"/>
</g>
<defs>
<filter id="filter0_ddd" x="0.00113678" y="0.00609493" width="509.519" height="479.583" filterUnits="userSpaceOnUse" color-interpolation-filters="sRGB">
<feFlood flood-opacity="0" result="BackgroundImageFix"/>
<feColorMatrix in="SourceAlpha" type="matrix" values="0 0 0 0 0 0 0 0 0 0 0 0 0 0 0 0 0 0 127 0"/>
<feOffset dy="8.63191"/>
<feGaussianBlur stdDeviation="22.8129"/>
<feColorMatrix type="matrix" values="0 0 0 0 0.133333 0 0 0 0 0.321569 0 0 0 0 0.980392 0 0 0 0.09 0"/>
<feBlend mode="normal" in2="BackgroundImageFix" result="effect1_dropShadow"/>
<feColorMatrix in="SourceAlpha" type="matrix" values="0 0 0 0 0 0 0 0 0 0 0 0 0 0 0 0 0 0 127 0"/>
<feOffset dy="33.2945"/>
<feGaussianBlur stdDeviation="16.6473"/>
<feColorMatrix type="matrix" values="0 0 0 0 0 0 0 0 0 0 0 0 0 0 0 0 0 0 0.12 0"/>
<feBlend mode="normal" in2="effect1_dropShadow" result="effect2_dropShadow"/>
<feColorMatrix in="SourceAlpha" type="matrix" values="0 0 0 0 0 0 0 0 0 0 0 0 0 0 0 0 0 0 127 0"/>
<feOffset dy="-3.69939"/>
<feGaussianBlur stdDeviation="4.31596"/>
<feColorMatrix type="matrix" values="0 0 0 0 0 0 0 0 0 0 0 0 0 0 0 0 0 0 0.02 0"/>
<feBlend mode="normal" in2="effect2_dropShadow" result="effect3_dropShadow"/>
<feBlend mode="normal" in="SourceGraphic" in2="effect3_dropShadow" result="shape"/>
</filter>
<filter id="filter1_d" x="350.404" y="53.7005" width="234.652" height="349.382" filterUnits="userSpaceOnUse" color-interpolation-filters="sRGB">
<feFlood flood-opacity="0" result="BackgroundImageFix"/>
<feColorMatrix in="SourceAlpha" type="matrix" values="0 0 0 0 0 0 0 0 0 0 0 0 0 0 0 0 0 0 127 0"/>
<feOffset dx="-6.16565" dy="12.3313"/>
<feGaussianBlur stdDeviation="22.8129"/>
<feColorMatrix type="matrix" values="0 0 0 0 0.0572917 0 0 0 0 0.19525 0 0 0 0 0.55 0 0 0 0.25 0"/>
<feBlend mode="normal" in2="BackgroundImageFix" result="effect1_dropShadow"/>
<feBlend mode="normal" in="SourceGraphic" in2="effect1_dropShadow" result="shape"/>
</filter>
</defs>
</svg>
