<?xml version="1.0" encoding="UTF-8" standalone="no"?>
<svg
   xmlns:dc="http://purl.org/dc/elements/1.1/"
   xmlns:cc="http://creativecommons.org/ns#"
   xmlns:rdf="http://www.w3.org/1999/02/22-rdf-syntax-ns#"
   xmlns:svg="http://www.w3.org/2000/svg"
   xmlns="http://www.w3.org/2000/svg"
   xmlns:sodipodi="http://sodipodi.sourceforge.net/DTD/sodipodi-0.dtd"
   xmlns:inkscape="http://www.inkscape.org/namespaces/inkscape"
   width="231.16585"
   height="65"
   viewBox="0 0 231.16585 65"
   fill="none"
   version="1.1"
   id="svg18"
   sodipodi:docname="logo1.svg"
   inkscape:version="1.0 (4035a4fb49, 2020-05-01)">
  <metadata
     id="metadata24">
    <rdf:RDF>
      <cc:Work
         rdf:about="">
        <dc:format>image/svg+xml</dc:format>
        <dc:type
           rdf:resource="http://purl.org/dc/dcmitype/StillImage" />
        <dc:title></dc:title>
      </cc:Work>
    </rdf:RDF>
  </metadata>
  <defs
     id="defs22" />
  <sodipodi:namedview
     inkscape:document-rotation="0"
     pagecolor="#ffffff"
     bordercolor="#666666"
     borderopacity="1"
     objecttolerance="10"
     gridtolerance="10"
     guidetolerance="10"
     inkscape:pageopacity="0"
     inkscape:pageshadow="2"
     inkscape:window-width="2560"
     inkscape:window-height="1027"
     id="namedview20"
     showgrid="false"
     inkscape:zoom="6.4384615"
     inkscape:cx="110.58886"
     inkscape:cy="32.528447"
     inkscape:window-x="-8"
     inkscape:window-y="-8"
     inkscape:window-maximized="1"
     inkscape:current-layer="svg18"
     fit-margin-top="0"
     fit-margin-left="0"
     fit-margin-right="0"
     fit-margin-bottom="0" />
  <g
     style="font-style:normal;font-variant:normal;font-weight:bold;font-stretch:normal;font-size:37.3333px;line-height:1;font-family:inter;-inkscape-font-specification:'inter Bold';letter-spacing:1px;word-spacing:0px;fill:#061137;fill-opacity:1"
     id="text28"
     aria-label="Infrabase">
    <path
       id="path163"
       d="M 59.083599,19.361753 V 46.513245 H 53.343073 V 19.361753 Z" />
    <path
       id="path165"
       d="M 70.384727,34.740527 V 46.513245 H 64.737004 V 26.149626 h 5.382571 v 3.5928 h 0.238636 q 0.676136,-1.776514 2.267044,-2.810604 1.590908,-1.047348 3.857951,-1.047348 2.121211,0 3.698861,0.92803 1.57765,0.928029 2.452649,2.651513 0.874999,1.710226 0.874999,4.08333 V 46.513245 H 77.861993 V 34.554921 q 0.01326,-1.869316 -0.954545,-2.916664 -0.967802,-1.060605 -2.66477,-1.060605 -1.140151,0 -2.01515,0.49053 -0.861742,0.49053 -1.352271,1.431817 -0.477273,0.928029 -0.49053,2.240528 z" />
    <path
       id="path167"
       d="m 99.875234,26.149626 v 4.24242 H 87.307063 v -4.24242 z M 90.183955,46.513245 V 24.678036 q 0,-2.214013 0.861741,-3.672345 0.875,-1.458333 2.386362,-2.187499 1.511362,-0.729166 3.433709,-0.729166 1.299241,0 2.373104,0.198864 1.087119,0.198863 1.617419,0.357954 l -1.007571,4.242421 q -0.331439,-0.106061 -0.821969,-0.198864 -0.477272,-0.0928 -0.98106,-0.0928 -1.246211,0 -1.736741,0.583333 -0.490529,0.570075 -0.490529,1.604165 v 21.729149 z" />
    <path
       id="path169"
       d="M 104.28906,46.513245 V 26.149626 h 5.47537 v 3.553027 h 0.21212 q 0.55682,-1.895832 1.86932,-2.863634 1.3125,-0.98106 3.02272,-0.98106 0.42425,0 0.91478,0.05303 0.49052,0.05303 0.86174,0.145834 v 5.011359 q -0.39773,-0.119318 -1.10038,-0.212121 -0.70265,-0.0928 -1.28598,-0.0928 -1.24622,0 -2.22728,0.54356 -0.9678,0.530303 -1.53787,1.484847 -0.55682,0.954545 -0.55682,2.200756 v 11.520824 z" />
    <path
       id="path171"
       d="m 126.33544,46.897714 q -1.94887,0 -3.47349,-0.676136 -1.52462,-0.689393 -2.41287,-2.028407 -0.875,-1.352272 -0.875,-3.367422 0,-1.696968 0.6231,-2.850376 0.62311,-1.153408 1.69697,-1.856059 1.07387,-0.702651 2.43939,-1.060605 1.37879,-0.357954 2.89015,-0.503788 1.77652,-0.185605 2.86364,-0.344696 1.08712,-0.172349 1.57765,-0.503788 0.49053,-0.331439 0.49053,-0.981059 v -0.07955 q 0,-1.259468 -0.79546,-1.948862 -0.78219,-0.689393 -2.22727,-0.689393 -1.52462,0 -2.42613,0.676136 -0.90152,0.662878 -1.19318,1.670453 l -5.22348,-0.424242 q 0.39772,-1.856059 1.56439,-3.208331 1.16667,-1.365529 3.00947,-2.094695 1.85606,-0.742424 4.29545,-0.742424 1.69697,0 3.2481,0.397727 1.56439,0.397727 2.77083,1.232954 1.2197,0.835226 1.92235,2.147725 0.70265,1.299242 0.70265,3.115528 v 13.734837 h -5.35606 v -2.823862 h -0.15909 q -0.49053,0.954545 -1.3125,1.683711 -0.82196,0.715909 -1.97537,1.126893 -1.15341,0.397727 -2.66477,0.397727 z m 1.61742,-3.897724 q 1.24621,0 2.20076,-0.49053 0.95454,-0.503787 1.4981,-1.352271 0.54356,-0.848485 0.54356,-1.922347 v -2.160983 q -0.26515,0.172348 -0.72917,0.318181 -0.45075,0.132576 -1.02083,0.251894 -0.57007,0.106061 -1.14015,0.198863 -0.57007,0.07955 -1.03409,0.145834 -0.99432,0.145833 -1.73674,0.464014 -0.74242,0.318182 -1.15341,0.861742 -0.41098,0.530303 -0.41098,1.325757 0,1.153408 0.83522,1.763256 0.84849,0.59659 2.14773,0.59659 z" />
    <path
       id="path173"
       d="M 143.29092,46.513245 V 19.361753 h 5.64772 v 10.208324 h 0.17235 q 0.37121,-0.821969 1.07386,-1.670453 0.71591,-0.861742 1.85606,-1.431817 1.15341,-0.583333 2.86364,-0.583333 2.22727,0 4.10984,1.166666 1.88257,1.153408 3.00947,3.486739 1.12689,2.320074 1.12689,5.820071 0,3.407194 -1.10038,5.753783 -1.08712,2.333332 -2.96969,3.53977 -1.86932,1.193181 -4.18939,1.193181 -1.64394,0 -2.79735,-0.54356 -1.14015,-0.543561 -1.86932,-1.36553 -0.72916,-0.835226 -1.11363,-1.68371 h -0.25189 v 3.261361 z m 5.5284,-10.18181 q 0,1.816286 0.50379,3.168558 0.50379,1.352272 1.45833,2.107953 0.95455,0.742423 2.32008,0.742423 1.37878,0 2.33333,-0.755681 0.95454,-0.768939 1.44507,-2.12121 0.50379,-1.365529 0.50379,-3.142043 0,-1.763256 -0.49053,-3.10227 -0.49053,-1.339014 -1.44507,-2.094695 -0.95455,-0.755681 -2.34659,-0.755681 -1.37879,0 -2.33333,0.729166 -0.94129,0.729166 -1.44508,2.06818 -0.50379,1.339014 -0.50379,3.1553 z" />
    <path
       id="path175"
       d="m 173.68957,46.897714 q -1.94886,0 -3.47348,-0.676136 -1.52462,-0.689393 -2.41288,-2.028407 -0.875,-1.352272 -0.875,-3.367422 0,-1.696968 0.62311,-2.850376 0.6231,-1.153408 1.69697,-1.856059 1.07386,-0.702651 2.43939,-1.060605 1.37878,-0.357954 2.89015,-0.503788 1.77651,-0.185605 2.86363,-0.344696 1.08712,-0.172349 1.57765,-0.503788 0.49053,-0.331439 0.49053,-0.981059 v -0.07955 q 0,-1.259468 -0.79545,-1.948862 -0.7822,-0.689393 -2.22727,-0.689393 -1.52462,0 -2.42614,0.676136 -0.90151,0.662878 -1.19318,1.670453 l -5.22348,-0.424242 q 0.39773,-1.856059 1.56439,-3.208331 1.16667,-1.365529 3.00947,-2.094695 1.85606,-0.742424 4.29545,-0.742424 1.69697,0 3.2481,0.397727 1.5644,0.397727 2.77084,1.232954 1.21969,0.835226 1.92234,2.147725 0.70265,1.299242 0.70265,3.115528 v 13.734837 h -5.35605 v -2.823862 h -0.15909 q -0.49053,0.954545 -1.3125,1.683711 -0.82197,0.715909 -1.97538,1.126893 -1.15341,0.397727 -2.66477,0.397727 z m 1.61742,-3.897724 q 1.24621,0 2.20076,-0.49053 0.95454,-0.503787 1.4981,-1.352271 0.54356,-0.848485 0.54356,-1.922347 v -2.160983 q -0.26515,0.172348 -0.72916,0.318181 -0.45076,0.132576 -1.02083,0.251894 -0.57008,0.106061 -1.14016,0.198863 -0.57007,0.07955 -1.03409,0.145834 -0.99431,0.145833 -1.73674,0.464014 -0.74242,0.318182 -1.1534,0.861742 -0.41099,0.530303 -0.41099,1.325757 0,1.153408 0.83523,1.763256 0.84848,0.59659 2.14772,0.59659 z" />
    <path
       id="path177"
       d="m 207.48215,31.956439 -5.17045,0.318181 q -0.13257,-0.662878 -0.57007,-1.19318 -0.4375,-0.543561 -1.15341,-0.861742 -0.70265,-0.331439 -1.68371,-0.331439 -1.3125,0 -2.21402,0.556817 -0.90151,0.543561 -0.90151,1.458333 0,0.729166 0.58333,1.232953 0.58334,0.503788 2.00189,0.808712 l 3.68561,0.742423 q 2.96969,0.609848 4.42802,1.96212 1.45834,1.352271 1.45834,3.553027 0,2.001892 -1.17993,3.513255 -1.16666,1.511362 -3.20833,2.359846 -2.0284,0.835227 -4.67992,0.835227 -4.04355,0 -6.44317,-1.683711 -2.38637,-1.696968 -2.79735,-4.613633 l 5.55492,-0.291666 q 0.25189,1.232954 1.2197,1.882574 0.9678,0.636363 2.47916,0.636363 1.48485,0 2.38636,-0.570075 0.91477,-0.583333 0.92803,-1.498105 -0.0133,-0.768939 -0.64962,-1.259468 -0.63636,-0.503788 -1.96212,-0.768939 l -3.52651,-0.702651 q -2.98295,-0.59659 -4.44129,-2.06818 -1.44507,-1.47159 -1.44507,-3.751891 0,-1.962119 1.06061,-3.380679 1.07386,-1.418559 3.00946,-2.187498 1.94886,-0.768939 4.5606,-0.768939 3.85796,0 6.07197,1.630681 2.22727,1.63068 2.59848,4.441284 z" />
    <path
       id="path179"
       d="m 221.81926,46.910972 q -3.14204,0 -5.40908,-1.272727 -2.25379,-1.285983 -3.47348,-3.632572 -1.2197,-2.359847 -1.2197,-5.581435 0,-3.142043 1.2197,-5.515147 1.21969,-2.373104 3.43371,-3.69886 2.22727,-1.325757 5.22348,-1.325757 2.01515,0 3.75189,0.649621 1.74999,0.636363 3.04924,1.922347 1.31249,1.285984 2.04166,3.234846 0.72917,1.935604 0.72917,4.534087 v 1.551135 h -17.19506 v -3.499997 h 11.87877 q 0,-1.219696 -0.5303,-2.160983 -0.5303,-0.941287 -1.47159,-1.47159 -0.92803,-0.54356 -2.16098,-0.54356 -1.28599,0 -2.2803,0.59659 -0.98106,0.583333 -1.53788,1.57765 -0.55682,0.98106 -0.57008,2.187499 v 3.327648 q 0,1.511363 0.55682,2.61174 0.57008,1.100378 1.60417,1.696969 1.03409,0.59659 2.45265,0.59659 0.94128,0 1.72348,-0.265151 0.7822,-0.265152 1.33901,-0.795454 0.55682,-0.530303 0.84849,-1.299241 l 5.22348,0.344696 q -0.39773,1.882574 -1.63068,3.287876 -1.2197,1.392045 -3.1553,2.174241 -1.92235,0.768939 -4.44129,0.768939 z" />
  </g>
  <g
     id="g33"
     transform="translate(0,14.6428)">
    <path
       id="path12"
       fill="#2253ff"
       d="m 0,27.3439 c 0,-1.7398 1.410424,-3.1502 3.150274,-3.1502 h 8.3705 v 11.5207 h -8.3705 C 1.410424,35.7144 0,34.304 0,32.5642 Z"
       opacity="0.6" />
    <path
       id="path14"
       fill="#2253ff"
       d="m 11.520774,14.6711 c 0,-1.7398 1.4104,-3.1502 3.1502,-3.1502 h 8.3705 v 24.1935 h -11.5207 z"
       opacity="0.8" />
    <path
       id="path16"
       fill="#2253ff"
       d="m 23.041474,3.1503 c 0,-1.7398 1.4104,-3.1503 3.1502,-3.1503 h 5.2202 c 1.7399,0 3.1503,1.4105 3.1503,3.1503 v 29.4138 c 0,1.7398 -1.4104,3.1503 -3.1503,3.1503 h -8.3704 z" />
  </g>
</svg>
