<svg width="150" height="114" viewBox="0 0 150 114" fill="none" xmlns="http://www.w3.org/2000/svg">
<circle cx="54.326" cy="59.326" r="54.326" fill="#2253FF"/>
<g clip-path="url(#clip0)">
<path d="M88.4049 100.063L106.309 89.6478L106.292 95.0644L88.3875 105.462L88.4049 100.063Z" fill="#0C5AE5"/>
<path d="M88.3874 106.333C88.2307 106.333 88.0914 106.298 87.952 106.211C87.6734 106.055 87.5166 105.776 87.5166 105.462L87.534 100.063C87.534 99.7498 87.7082 99.4711 87.9694 99.3143L105.874 88.8992C106.135 88.7424 106.483 88.7424 106.745 88.8992C107.023 89.0559 107.18 89.3346 107.18 89.6481L107.163 95.0473C107.163 95.3608 106.988 95.6394 106.727 95.7962L88.8229 106.194C88.7009 106.298 88.5442 106.333 88.3874 106.333ZM89.2757 100.568L89.2583 103.965L105.421 94.577L105.438 91.1808L89.2757 100.568Z" fill="#0C5AE5"/>
<path d="M98.8195 66.8147C98.3667 66.5535 97.9312 66.2748 97.4958 65.9613C97.3565 65.8568 97.2172 65.7523 97.0778 65.6478C96.7817 65.4388 96.5031 65.2124 96.207 64.9686C96.0502 64.8292 95.8935 64.6899 95.7193 64.5506C95.4581 64.3241 95.2142 64.0977 94.9704 63.8539C94.8137 63.6971 94.6395 63.5404 94.4827 63.3662C94.2389 63.1224 94.0125 62.8786 93.7861 62.6173C93.6467 62.4606 93.49 62.2864 93.3507 62.1296C93.0023 61.7291 92.6714 61.3111 92.3405 60.8756C92.2708 60.7886 92.2012 60.7015 92.1315 60.597C91.7483 60.0745 91.3826 59.5346 91.0168 58.9946C90.9297 58.8553 90.8427 58.6986 90.7382 58.5592C90.4769 58.1412 90.2157 57.7058 89.9892 57.2704C89.9022 57.0962 89.7977 56.9221 89.7106 56.7479C89.4493 56.2428 89.1881 55.7203 88.9617 55.2152C88.9268 55.1281 88.892 55.0585 88.8572 54.9714C88.5611 54.3096 88.3172 53.6477 88.0734 52.9685C88.0212 52.8117 87.9689 52.6376 87.9167 52.4808C87.7077 51.8364 87.5161 51.192 87.3593 50.5476C87.3593 50.5127 87.3419 50.4779 87.3245 50.4431C87.1677 49.7638 87.0458 49.102 86.9587 48.4401C86.9413 48.2834 86.9239 48.1092 86.9065 47.9525C86.8368 47.2906 86.7846 46.6288 86.7846 45.967C86.802 42.1527 88.1431 39.4706 90.3027 38.2166L72.3984 48.6143C70.2213 49.8683 68.8802 52.5505 68.8802 56.3647C68.8802 57.0091 68.9325 57.671 69.0022 58.3502C69.0196 58.507 69.037 58.6811 69.0544 58.8379C69.1415 59.4997 69.2634 60.179 69.4202 60.8408C69.4202 60.8756 69.4376 60.9105 69.455 60.9453C69.6117 61.5897 69.8033 62.2341 70.0123 62.8786C70.0646 63.0353 70.1168 63.2095 70.1865 63.3662C70.4129 64.0281 70.6742 64.7073 70.9702 65.3691C70.9702 65.3866 70.9877 65.404 70.9877 65.404C71.0225 65.4736 71.0573 65.5433 71.0922 65.5956C71.3186 66.1181 71.5798 66.6231 71.8411 67.1282C71.9282 67.3024 72.0327 67.4766 72.1197 67.6507C72.3636 68.0861 72.6074 68.5216 72.8687 68.9396C72.9557 69.0789 73.0428 69.2356 73.1473 69.375C73.4957 69.9323 73.8788 70.4722 74.262 70.9773C74.3317 71.0644 74.4013 71.1515 74.471 71.256C74.8019 71.6914 75.1328 72.1094 75.4812 72.51C75.5334 72.5796 75.6031 72.6493 75.6553 72.719C75.7424 72.8061 75.8295 72.8931 75.9166 72.9976C76.143 73.2589 76.3868 73.5027 76.6132 73.7466C76.77 73.9033 76.9267 74.0775 77.1009 74.2342C77.3447 74.4781 77.606 74.7045 77.8498 74.9309C78.0066 75.0702 78.1633 75.2096 78.3375 75.3489C78.6162 75.5927 78.9122 75.8017 79.2083 76.0281C79.3477 76.1326 79.487 76.2371 79.6263 76.3416C80.0617 76.6551 80.4972 76.9338 80.95 77.1951C84.3114 79.1283 87.3419 79.3199 89.5364 78.0485L107.441 67.6507C105.211 68.9221 102.181 68.748 98.8195 66.8147Z" fill="#D4DDFC"/>
<path d="M86.3322 79.7554C84.5208 79.7554 82.5179 79.1633 80.4802 77.9789C80.0099 77.7003 79.5397 77.4042 79.0868 77.0907L78.6514 76.7598C78.3379 76.5333 78.0418 76.3069 77.7458 76.0631L77.3626 75.7322C76.9794 75.3838 76.7182 75.1574 76.4569 74.9136C76.2828 74.7568 76.126 74.5827 75.9518 74.4085C75.708 74.1647 75.4642 73.9034 75.2203 73.6422L74.9591 73.3635C74.9417 73.3461 74.8372 73.2242 74.8372 73.2068C74.4192 72.7191 74.0708 72.2837 73.7399 71.8483L73.5135 71.5696C73.1129 71.0297 72.7298 70.4723 72.364 69.915L72.1898 69.5667C71.8241 68.9919 71.5803 68.5391 71.319 68.0863L71.0229 67.5463C70.7443 67.0238 70.483 66.5013 70.2566 65.9614L70.1521 65.7524C69.8386 65.0383 69.5773 64.3417 69.3335 63.645L69.1768 63.1748C68.9503 62.4607 68.7413 61.7988 68.5846 61.137C68.393 60.3184 68.2711 59.6218 68.184 58.9425L68.1143 58.4374C68.0447 57.7408 67.9924 57.0441 67.9924 56.3648C68.0098 52.359 69.4032 49.3459 71.946 47.8655L89.8503 37.4678C90.2683 37.2239 90.7908 37.3633 91.0347 37.7813C91.2785 38.1993 91.1392 38.7218 90.7212 38.9656C88.7357 40.1151 87.6384 42.6057 87.6384 45.9671C87.6384 46.5767 87.6907 47.2211 87.7603 47.8481L87.8126 48.3183C87.8997 48.9628 88.0042 49.6072 88.1609 50.2516C88.3351 50.9831 88.5267 51.6101 88.7183 52.2371L88.875 52.7073C89.1014 53.3518 89.3453 53.9962 89.6239 54.6406L88.9621 55.2153L89.7633 54.8496C89.9897 55.3547 90.2335 55.8598 90.4948 56.3474L90.7212 56.7828C90.9998 57.2879 91.2437 57.7059 91.4875 58.1065L91.7488 58.5419C92.0971 59.0818 92.4454 59.6043 92.8286 60.1094L93.0376 60.3707C93.3511 60.7887 93.682 61.1893 94.0129 61.5898L94.4309 62.0601C94.6573 62.3039 94.8838 62.5478 95.1102 62.7742C95.2669 62.9309 95.4237 63.0877 95.5804 63.2444C95.8243 63.4708 96.0681 63.6973 96.3119 63.9063L96.7648 64.3068C97.0434 64.5333 97.3221 64.7423 97.6008 64.9513L98.0013 65.2473C98.4193 65.5434 98.8373 65.8221 99.2728 66.0659C102.251 67.7728 104.985 68.0863 106.988 66.9193C107.406 66.6755 107.929 66.8148 108.173 67.2328C108.417 67.6508 108.277 68.1908 107.859 68.4172L89.9548 78.8149C88.875 79.4419 87.6558 79.7554 86.3322 79.7554ZM71.8415 65.2648C72.0679 65.7698 72.3118 66.2575 72.573 66.7626L72.8517 67.2677C73.0781 67.7031 73.3393 68.1211 73.5832 68.5217L73.8444 68.9397C74.1928 69.4796 74.5411 70.0021 74.9243 70.5072L75.1333 70.7684C75.4468 71.1864 75.7777 71.587 76.1086 71.9876C76.1086 72.005 76.2131 72.1095 76.2131 72.1269L76.3873 72.3185C76.3873 72.3185 76.5092 72.4404 76.5092 72.4578C76.7356 72.7017 76.962 72.9455 77.1884 73.1893C77.3452 73.3461 77.5019 73.5028 77.6587 73.6422C77.9025 73.8686 78.1463 74.095 78.3902 74.304L78.8604 74.7046C79.1217 74.931 79.4003 75.14 79.6964 75.349L80.097 75.6451C80.515 75.9412 80.933 76.2198 81.3684 76.4637C84.3293 78.1705 87.0811 78.484 89.084 77.3171L102.948 69.2532C101.502 69.0442 99.9694 68.4694 98.3845 67.5638C97.9143 67.2851 97.444 66.989 96.9912 66.6755C96.9041 66.6058 96.7996 66.5362 96.6951 66.4665L96.5383 66.362C96.2248 66.1356 95.9288 65.9092 95.6327 65.6479C95.5108 65.5434 95.3714 65.4215 95.2495 65.317C94.8838 64.9861 94.6051 64.7423 94.3613 64.4984C94.1871 64.3417 94.0303 64.1675 93.8562 63.9933C93.6123 63.7495 93.3685 63.4883 93.1421 63.227L92.6893 62.7219C92.3235 62.3039 91.9752 61.8685 91.6443 61.4331L91.4178 61.1544C91.0173 60.6145 90.6341 60.0572 90.2683 59.4998L89.9897 59.047C89.7284 58.6116 89.4672 58.1588 89.2059 57.7233L88.9098 57.1834C88.6312 56.6609 88.3699 56.1384 88.1435 55.5985L88.8228 55.0063L88.0216 55.3547C87.7255 54.6754 87.4643 53.9788 87.2204 53.2995L87.0811 52.9163C86.8198 52.1326 86.6283 51.4533 86.4715 50.7915C86.2799 49.9729 86.158 49.2763 86.0709 48.5796L86.0013 48.0745C85.9316 47.3778 85.8793 46.6812 85.8793 46.0019C85.8793 44.2428 86.158 42.6753 86.6805 41.3517L72.8168 49.4156C70.8313 50.5651 69.7341 53.0557 69.7341 56.4171C69.7341 57.0267 69.7863 57.6711 69.856 58.2981L69.9083 58.7683C69.9953 59.3953 70.0998 60.0398 70.2566 60.6842C70.4308 61.4157 70.6223 62.0427 70.8139 62.6523L70.9707 63.1225C71.1971 63.7669 71.4409 64.4113 71.7196 65.0558L71.0403 65.6479L71.8415 65.2648Z" fill="#0C5AE5"/>
<path d="M56.3424 22.6801L74.2467 12.2823L78.3048 17.3332L60.4005 27.7309L56.3424 22.6801Z" fill="white"/>
<path d="M60.4001 28.6025C60.1388 28.6025 59.895 28.498 59.7208 28.2716L55.6628 23.2208C55.506 23.0292 55.4363 22.768 55.4886 22.5241C55.5408 22.2803 55.6802 22.0539 55.9066 21.932L73.8109 11.5342C74.1767 11.3252 74.6643 11.4123 74.9256 11.7432L78.9837 16.794C79.1404 16.9856 79.2101 17.2469 79.1578 17.4907C79.1056 17.7345 78.9663 17.961 78.7398 18.0829L60.8355 28.498C60.6962 28.5677 60.5568 28.6025 60.4001 28.6025ZM57.6483 22.9247L60.6091 26.5996L76.9982 17.0727L74.0373 13.4152L57.6483 22.9247Z" fill="#0C5AE5"/>
<path d="M60.3993 27.732L78.3036 17.3342L91.401 16.2021L73.4966 26.5999L60.3993 27.732Z" fill="white"/>
<path d="M60.3991 28.6026C60.0159 28.6026 59.685 28.3587 59.5631 27.993C59.4412 27.6098 59.5979 27.1744 59.9637 26.9828L77.868 16.5676C77.9725 16.498 78.0944 16.4631 78.2338 16.4457L91.3311 15.3136C91.7143 15.2614 92.1149 15.5226 92.2368 15.9232C92.3587 16.3064 92.2019 16.7418 91.8362 16.9334L73.9319 27.3486C73.8274 27.4182 73.7054 27.4531 73.5661 27.4705L60.4688 28.6026C60.4514 28.6026 60.4165 28.6026 60.3991 28.6026ZM78.5821 18.1874L64.2134 26.5474L73.2352 25.7636L87.6039 17.4036L78.5821 18.1874Z" fill="#0C5AE5"/>
<path d="M109.096 88.2723L127 77.8572L131.058 82.908L113.154 93.3232L109.096 88.2723Z" fill="#D4DDFC"/>
<path d="M113.154 94.1942C112.892 94.1942 112.649 94.0722 112.474 93.8632L108.416 88.8124C108.26 88.6208 108.19 88.3596 108.242 88.0983C108.294 87.8545 108.434 87.6281 108.66 87.5062L126.564 77.1084C126.93 76.8994 127.418 76.9865 127.679 77.3174L131.737 82.3683C131.894 82.5598 131.964 82.8211 131.911 83.0649C131.859 83.3088 131.72 83.5352 131.493 83.6571L113.589 94.0723C113.45 94.1593 113.31 94.1942 113.154 94.1942ZM110.402 88.5163L113.363 92.1912L129.752 82.6643L126.791 78.9894L110.402 88.5163Z" fill="#0C5AE5"/>
<path d="M113.154 93.3231L131.058 82.908L123.482 93.5844L105.578 103.982L113.154 93.3231Z" fill="#D4DDFC"/>
<path d="M105.578 104.853C105.334 104.853 105.108 104.749 104.933 104.574C104.655 104.278 104.637 103.825 104.864 103.477L112.44 92.8181C112.51 92.7136 112.597 92.6266 112.719 92.5743L130.623 82.1591C130.971 81.9501 131.424 82.0198 131.703 82.3333C131.981 82.6294 131.999 83.0822 131.772 83.4306L124.179 94.0895C124.109 94.194 124.022 94.2811 123.9 94.3334L105.996 104.731C105.874 104.818 105.717 104.853 105.578 104.853ZM113.764 93.985L108.626 101.213L122.89 92.9226L128.028 85.6947L113.764 93.985Z" fill="#0C5AE5"/>
<path d="M109.148 70.9251L127.053 60.5099L127 77.8569L109.096 88.272L109.148 70.9251Z" fill="#D4DDFC"/>
<path d="M109.096 89.1429C108.939 89.1429 108.8 89.1081 108.66 89.021C108.382 88.8643 108.225 88.5856 108.225 88.2721L108.277 70.9251C108.277 70.6116 108.451 70.333 108.713 70.1762L126.617 59.7785C126.896 59.6217 127.227 59.6217 127.488 59.7785C127.749 59.9178 127.923 60.2139 127.923 60.5274L127.871 77.8744C127.871 78.1879 127.697 78.4665 127.436 78.6233L109.531 89.021C109.392 89.1081 109.253 89.1429 109.096 89.1429ZM110.019 71.4302L109.984 86.7569L126.147 77.3693L126.182 62.0426L110.019 71.4302Z" fill="#0C5AE5"/>
<path d="M88.5968 29.9267L106.519 19.5289L106.501 24.9107L88.5968 35.3258V29.9267Z" fill="white"/>
<path d="M88.597 36.1963C88.4403 36.1963 88.3009 36.1615 88.1616 36.0744C87.8829 35.9177 87.7262 35.639 87.7262 35.3255L87.7436 29.9263C87.7436 29.6128 87.9178 29.3342 88.179 29.1774L106.083 18.7797C106.362 18.6229 106.693 18.6229 106.954 18.7797C107.233 18.9364 107.39 19.2325 107.39 19.5286L107.372 24.9103C107.372 25.2238 107.198 25.5025 106.937 25.6593L89.0324 36.0744C88.8931 36.1441 88.7364 36.1963 88.597 36.1963ZM89.4679 30.4314V33.8103L105.631 24.4227L105.648 21.0438L89.4679 30.4314Z" fill="#0C5AE5"/>
<path d="M73.5131 21.2177L91.4174 10.8025L106.518 19.5282L88.5959 29.926L73.5131 21.2177Z" fill="white"/>
<path d="M88.5964 30.7971C88.4397 30.7971 88.3004 30.7623 88.161 30.6752L73.0608 21.9668C72.7995 21.8101 72.6254 21.5314 72.6254 21.2179C72.6254 20.9044 72.7821 20.6258 73.0608 20.469L90.9651 10.0538C91.2438 9.89709 91.5747 9.89709 91.8359 10.0538L106.936 18.7622C107.197 18.9189 107.372 19.1976 107.372 19.5111C107.372 19.8246 107.215 20.1033 106.936 20.26L89.0319 30.6578C88.9099 30.7623 88.7532 30.7971 88.5964 30.7971ZM75.2379 21.2005L88.5964 28.9161L104.759 19.5111L91.4005 11.7955L75.2379 21.2005Z" fill="#0C5AE5"/>
<path d="M88.5964 35.3253L106.501 24.9102L119.546 41.1425L101.642 51.5577L88.5964 35.3253Z" fill="white"/>
<path d="M101.642 52.4286C101.381 52.4286 101.137 52.3241 100.963 52.0977L87.9002 35.8654C87.7434 35.6738 87.6738 35.4126 87.726 35.1687C87.7783 34.9249 87.9176 34.6985 88.144 34.5766L106.048 24.1614C106.414 23.9524 106.902 24.0395 107.163 24.3704L120.226 40.6027C120.382 40.7943 120.452 41.0556 120.4 41.2994C120.347 41.5432 120.208 41.7696 119.982 41.8916L102.077 52.2893C101.938 52.3764 101.799 52.4286 101.642 52.4286ZM89.9031 35.5693L101.851 50.4257L118.24 40.8988L106.292 26.0424L89.9031 35.5693Z" fill="#0C5AE5"/>
<path d="M101.644 51.5577L119.548 41.1425L123.624 40.7942L105.719 51.1919L101.644 51.5577Z" fill="white"/>
<path d="M101.643 52.4285C101.26 52.4285 100.929 52.1847 100.807 51.819C100.685 51.4358 100.842 51.0004 101.207 50.8088L119.112 40.411C119.216 40.3414 119.338 40.3065 119.478 40.2891L123.553 39.9408C123.936 39.906 124.337 40.1498 124.459 40.5504C124.581 40.951 124.424 41.369 124.058 41.5605L106.154 51.9409C106.049 52.0105 105.927 52.0454 105.788 52.0628L101.713 52.4111C101.695 52.4285 101.678 52.4285 101.643 52.4285Z" fill="#0C5AE5"/>
<path d="M105.717 51.1924L123.622 40.7947L131.128 60.1794L113.224 70.5772L105.717 51.1924Z" fill="#D4DDFC"/>
<path d="M113.223 71.4478C113.119 71.4478 113.032 71.4304 112.927 71.3955C112.684 71.3084 112.492 71.1169 112.405 70.8904L104.898 51.5057C104.742 51.1051 104.898 50.6523 105.264 50.4433L123.168 40.0455C123.395 39.9236 123.656 39.8888 123.9 39.9759C124.144 40.0629 124.335 40.2545 124.422 40.4809L131.929 59.8657C132.086 60.2663 131.929 60.7191 131.563 60.9281L113.659 71.3259C113.52 71.4129 113.38 71.4478 113.223 71.4478ZM106.797 51.5754L113.659 69.3229L130.048 59.796L123.186 42.0484L106.797 51.5754Z" fill="#0C5AE5"/>
<path d="M109.148 70.9251L113.224 70.5768L105.717 51.1921L101.641 51.5404L88.5789 35.3081L88.5964 29.9089L73.4961 21.2006L73.4787 26.5997L60.3814 27.7318L56.3407 22.681L48.747 33.3574L52.8051 38.3908L52.7529 55.7378L48.6774 56.0861L56.1839 75.4709L60.2594 75.1226L73.3045 91.3375L73.2871 96.7366L88.3874 105.445L88.4048 100.046L101.502 98.9311L105.578 103.982L113.171 93.323L109.113 88.2721L109.148 70.9251ZM80.9156 77.2126C74.245 73.3635 68.8459 64.0281 68.8633 56.3648C68.8807 48.7015 74.3147 45.6013 80.9853 49.4504C87.6559 53.2995 93.0376 62.6348 93.0202 70.3156C93.0028 77.9789 87.5862 81.0616 80.9156 77.2126Z" fill="white"/>
<path d="M88.3878 106.333C88.2311 106.333 88.0917 106.298 87.9524 106.211L72.8521 97.5029C72.5735 97.3461 72.4167 97.0675 72.4167 96.754L72.4341 91.6509L59.8767 76.0455L56.2715 76.3416C55.8883 76.3765 55.5226 76.15 55.3832 75.7843L47.8592 56.417C47.7547 56.1557 47.7896 55.877 47.9289 55.6332C48.0682 55.4068 48.3121 55.25 48.5907 55.2326L51.8651 54.954L51.9173 38.7042L48.0508 33.9146C47.807 33.6185 47.7896 33.1831 48.016 32.8696L55.6096 22.1932C55.7664 21.9668 56.0276 21.8275 56.2889 21.8275C56.5676 21.8275 56.8288 21.932 56.9856 22.1584L60.7824 26.826L72.6257 25.7985L72.6431 21.2005C72.6431 20.887 72.8173 20.6083 73.0786 20.4515C73.3398 20.2948 73.6881 20.2948 73.9494 20.4515L89.0496 29.1599C89.3283 29.3166 89.4851 29.6127 89.4851 29.9088L89.4676 34.9945L102.042 50.6172L105.648 50.3037C106.031 50.2689 106.397 50.4953 106.536 50.861L114.043 70.2458C114.147 70.507 114.112 70.7857 113.973 71.0295C113.834 71.256 113.572 71.4127 113.311 71.4301L110.037 71.7088L109.984 87.9411L113.851 92.7481C114.095 93.0442 114.112 93.4796 113.886 93.7931L106.31 104.452C106.153 104.679 105.892 104.818 105.63 104.818C105.352 104.818 105.09 104.713 104.934 104.487L101.172 99.8019L89.3283 100.812L89.3109 105.427C89.3109 105.741 89.1367 106.02 88.8755 106.176C88.6839 106.298 88.5446 106.333 88.3878 106.333ZM74.1584 96.2489L87.517 103.964L87.5344 100.063C87.5344 99.6103 87.8827 99.2271 88.3356 99.1923L101.433 98.0776C101.729 98.0602 102.008 98.1821 102.182 98.3911L105.526 102.536L112.057 93.3403L108.417 88.7945C108.295 88.6378 108.225 88.4462 108.225 88.2546L108.278 70.9076C108.278 70.4548 108.626 70.0716 109.079 70.0368L111.987 69.793L105.143 52.0976L101.712 52.3937C101.415 52.4111 101.137 52.2892 100.963 52.0802L87.9001 35.8479C87.7782 35.6911 87.7086 35.4995 87.7086 35.2905L87.726 30.3965L74.3674 22.6809L74.35 26.5648C74.35 27.0176 74.0016 27.3834 73.5488 27.4356L60.4515 28.5677C60.1728 28.6025 59.8767 28.4632 59.7026 28.2368L56.376 24.1265L49.8273 33.3225L53.4674 37.8508C53.5893 38.0075 53.659 38.1991 53.659 38.3907L53.6241 55.7377C53.6241 56.1905 53.2758 56.5563 52.823 56.6085L49.897 56.8698L56.7591 74.5477L60.1902 74.269C60.4863 74.2516 60.765 74.3735 60.9391 74.5825L73.9842 90.7975C74.1061 90.9542 74.1758 91.1458 74.1758 91.3374L74.1584 96.2489ZM86.3326 79.7553C84.5213 79.7553 82.5184 79.1631 80.4806 77.9788C73.5836 73.9904 67.9755 64.3067 67.9929 56.3647C68.0103 52.3415 69.4211 49.3284 71.9813 47.848C74.559 46.3675 77.903 46.6636 81.4211 48.7014C88.3181 52.6898 93.9089 62.3735 93.8915 70.3155C93.8741 74.3387 92.4633 77.3518 89.9205 78.8322C88.8406 79.4418 87.6389 79.7553 86.3326 79.7553ZM81.3515 76.4635C84.3123 78.1704 87.0467 78.4839 89.0496 77.317C91.0351 76.1675 92.1498 73.6769 92.1498 70.3155C92.1672 62.9308 86.9596 53.9264 80.5503 50.2166C77.5895 48.5098 74.8551 48.1963 72.8347 49.3632C70.8318 50.5127 69.7346 53.0033 69.7171 56.3647C69.7171 63.732 74.9247 72.7538 81.3515 76.4635Z" fill="#0C5AE5"/>
</g>
<defs>
<clipPath id="clip0">
<rect x="47.8079" y="9.93225" width="84.1922" height="96.4012" fill="white"/>
</clipPath>
</defs>
</svg>
