<svg width="150" height="114" viewBox="0 0 150 114" fill="none" xmlns="http://www.w3.org/2000/svg">
<g clip-path="url(#clip0)">
<circle cx="54.5829" cy="59.6216" r="54.5829" fill="#2253FF"/>
<path d="M141.621 77.2022V65.1206L40.4685 51.2974V63.379L71.9426 81.5379L76.5322 84.2045L103.145 99.5697L141.621 77.2022Z" fill="white"/>
<path d="M103.144 100.477C102.981 100.477 102.836 100.44 102.691 100.35L40.0146 64.1591C39.7424 63.9958 39.561 63.7055 39.561 63.379V51.2973C39.561 51.0434 39.6699 50.7894 39.8694 50.608C40.069 50.4266 40.3229 50.354 40.5951 50.3903L141.729 64.2135C142.183 64.2679 142.509 64.667 142.509 65.1205V77.2022C142.509 77.5287 142.346 77.819 142.056 77.9823L103.598 100.35C103.452 100.422 103.289 100.477 103.144 100.477ZM41.3751 62.8529L103.126 98.4994L140.713 76.6761V65.9006L41.3751 52.3313V62.8529Z" fill="#0C5AE5"/>
<path d="M141.621 65.1208L115.009 49.7556L105.485 44.259L78.9451 28.9301L40.4688 51.2976L71.9428 69.4564L76.5324 72.1231L103.145 87.4701L141.621 65.1208Z" fill="white"/>
<path d="M103.144 88.3769C102.981 88.3769 102.836 88.3406 102.691 88.2499L40.0148 52.0774C39.7427 51.9141 39.5613 51.6239 39.5613 51.2974C39.5613 50.9708 39.7245 50.6806 40.0148 50.5173L78.4912 28.1499C78.7633 27.9866 79.1261 27.9866 79.3982 28.1499L142.056 64.3224C142.328 64.4856 142.51 64.7759 142.51 65.1024C142.51 65.4289 142.346 65.7192 142.056 65.8825L103.598 88.2681C103.453 88.3406 103.289 88.3769 103.144 88.3769ZM42.2824 51.2974L103.126 86.4358L139.807 65.1206L78.9447 29.9821L42.2824 51.2974Z" fill="#0C5AE5"/>
<path d="M67.0068 66.6262V78.7079L76.5307 84.2045V72.1228L67.0068 66.6262Z" fill="#5F87ED"/>
<path d="M76.5311 85.1116C76.3678 85.1116 76.2227 85.0753 76.0776 84.9846L66.5537 79.488C66.2816 79.3247 66.1002 79.0345 66.1002 78.7079V66.6263C66.1002 66.2997 66.2816 66.0095 66.5537 65.8462C66.8258 65.6829 67.1887 65.6829 67.4608 65.8462L76.9846 71.3428C77.2567 71.5061 77.4381 71.7963 77.4381 72.1229V84.2046C77.4381 84.5311 77.2567 84.8213 76.9846 84.9846C76.8395 85.0753 76.6944 85.1116 76.5311 85.1116ZM67.9143 78.1819L75.6241 82.6263V72.6308L67.9143 68.1864V78.1819Z" fill="#0C5AE5"/>
<path d="M103.144 87.4699V99.5697L141.62 77.2023V65.1206L103.144 87.4699Z" fill="#D4DDFC"/>
<path d="M103.144 100.477C102.981 100.477 102.835 100.44 102.69 100.35C102.4 100.186 102.237 99.8961 102.237 99.5695V87.4878C102.237 87.1613 102.4 86.8711 102.69 86.7078L141.167 64.3403C141.439 64.1771 141.783 64.1771 142.074 64.3403C142.364 64.5036 142.527 64.7939 142.527 65.1204V77.2021C142.527 77.5286 142.364 77.8189 142.074 77.9821L103.597 100.35C103.452 100.422 103.289 100.477 103.144 100.477ZM104.051 87.9958V97.9913L140.713 76.676V66.6986L104.051 87.9958Z" fill="#0C5AE5"/>
<path d="M127.289 67.0436C124.877 65.6467 124.859 63.3791 127.253 61.9823L110.546 52.3315L83.7517 36.8575C81.3572 38.2543 77.4388 38.2543 75.0261 36.8575L54.1643 49.0117C56.577 50.4086 56.5952 52.6761 54.2006 54.073L80.9944 69.547L97.7019 79.1978C100.096 77.801 104.015 77.801 106.428 79.1978C106.645 79.3248 106.845 79.4518 107.026 79.5969L127.997 67.4064C127.743 67.2794 127.507 67.1705 127.289 67.0436Z" fill="#D4DDFC"/>
<path d="M107.008 80.4856C106.809 80.4856 106.609 80.413 106.446 80.286C106.301 80.1772 106.137 80.0684 105.956 79.9595C103.834 78.726 100.242 78.726 98.1373 79.9595C97.8652 80.1228 97.5024 80.1228 97.2303 79.9595L53.729 54.8528C53.4569 54.6896 53.2755 54.3812 53.2755 54.0546C53.2755 53.7281 53.4387 53.4379 53.729 53.2746C54.5816 52.7848 55.0714 52.1499 55.0714 51.5331C55.0714 50.9163 54.5635 50.2814 53.7108 49.7734C53.4387 49.6102 53.2573 49.3199 53.2573 48.9934C53.2573 48.6669 53.4206 48.3766 53.7108 48.2133L74.5908 36.0772C74.8629 35.914 75.2257 35.914 75.4978 36.0772C77.6202 37.3108 81.2121 37.2926 83.3164 36.0772C83.5885 35.914 83.9513 35.914 84.2235 36.0772L127.725 61.1839C127.997 61.3472 128.178 61.6374 128.178 61.964C128.178 62.2905 128.015 62.5808 127.725 62.744C126.872 63.2338 126.382 63.8687 126.382 64.4674C126.382 65.0842 126.872 65.7191 127.743 66.227C127.924 66.3359 128.124 66.4266 128.342 66.5173C128.65 66.6624 128.868 66.9526 128.886 67.2973C128.904 67.642 128.723 67.9685 128.432 68.1318L107.462 80.3586C107.317 80.4312 107.171 80.4856 107.008 80.4856ZM102.038 77.2203C103.779 77.2203 105.502 77.6194 106.863 78.3994C106.917 78.4357 106.99 78.472 107.044 78.5083L126.165 67.388C125.113 66.5898 124.55 65.5921 124.55 64.5037C124.55 63.6148 124.913 62.7984 125.62 62.091L83.7518 37.9094C81.2121 39.143 77.6202 39.143 75.0624 37.9094L55.7789 49.1022C56.4864 49.8097 56.8855 50.6442 56.8855 51.5331C56.8855 52.422 56.5045 53.2383 55.8152 53.9458L97.702 78.1273C98.9718 77.5287 100.496 77.2203 102.038 77.2203Z" fill="#0C5AE5"/>
<path d="M101.602 52.0773C97.1938 49.5376 88.9036 50.227 83.0441 53.6193C77.2028 57.0116 76.0237 61.837 80.4319 64.3767C84.8219 66.9164 93.1303 66.227 98.9898 62.8166C104.831 59.4243 105.992 54.617 101.602 52.0773Z" fill="white"/>
<path d="M87.3253 66.8258C84.5135 66.8258 81.9194 66.2816 79.9784 65.1569C77.9647 63.9959 76.8582 62.2906 76.8582 60.3859C76.8582 57.7192 78.9443 54.9618 82.5906 52.8394C88.7766 49.2475 97.3208 48.5582 102.056 51.2974C104.069 52.4584 105.176 54.1455 105.176 56.0684C105.176 58.7351 103.09 61.4925 99.4433 63.6149C95.797 65.7192 91.3344 66.8258 87.3253 66.8258ZM94.7267 51.4244C91.026 51.4244 86.8537 52.4584 83.4976 54.3995C80.4681 56.1591 78.6541 58.3904 78.6722 60.3677C78.6722 61.9641 79.8695 62.9981 80.8854 63.5786C85.0215 65.9732 92.9489 65.2657 98.5363 62.0185C101.566 60.2589 103.362 58.0276 103.362 56.0503C103.362 54.4539 102.164 53.4199 101.149 52.8394C99.4796 51.896 97.212 51.4244 94.7267 51.4244Z" fill="#0C5AE5"/>
<path d="M105.483 44.2589L101.039 46.853L94.363 50.717L78.1271 60.1501L71.4513 64.0322L67.0068 66.6264L76.5307 72.123L80.9752 69.5289L87.5784 65.7012L103.959 56.1773L110.563 52.3315L115.007 49.7555L105.483 44.2589Z" fill="#5F87ED"/>
<path d="M76.5311 73.0297C76.3678 73.0297 76.2227 72.9934 76.0776 72.9027L66.5537 67.4061C66.2816 67.2428 66.1002 66.9526 66.1002 66.626C66.1002 66.2995 66.2635 66.0092 66.5537 65.846L105.03 43.4785C105.302 43.3153 105.665 43.3153 105.937 43.4785L115.461 48.9752C115.733 49.1384 115.915 49.4287 115.915 49.7552C115.915 50.0817 115.751 50.372 115.461 50.5353L76.9846 72.9027C76.8395 72.9753 76.6944 73.0297 76.5311 73.0297ZM68.8213 66.6079L76.5311 71.0524L113.193 49.7371L105.484 45.2926L68.8213 66.6079Z" fill="#0C5AE5"/>
<path d="M140.26 60.5672V48.4674L39.1254 34.6442V46.744L70.5813 64.9028L75.189 67.5513L101.783 82.9165L140.26 60.5672Z" fill="white"/>
<path d="M101.783 83.8235C101.62 83.8235 101.475 83.7872 101.33 83.6965L38.6718 47.524C38.3997 47.3608 38.2183 47.0705 38.2183 46.744V34.6442C38.2183 34.3902 38.3271 34.1362 38.5267 33.9548C38.7262 33.7915 38.9802 33.7008 39.2523 33.7371L140.387 47.5603C140.84 47.6147 141.167 48.0138 141.167 48.4674V60.549C141.167 60.8756 141.003 61.1658 140.713 61.3291L102.237 83.6965C102.11 83.7872 101.946 83.8235 101.783 83.8235ZM40.0323 46.2179L101.783 81.8643L139.353 60.0411V49.2655L40.0323 35.6963V46.2179Z" fill="#0C5AE5"/>
<path d="M140.26 48.4675L113.665 33.1205L104.142 27.6238L77.6017 12.295L39.1254 34.6443L70.5813 52.8212L75.189 55.4698L101.783 70.8349L140.26 48.4675Z" fill="white"/>
<path d="M101.783 71.7419C101.62 71.7419 101.475 71.7056 101.33 71.6149L38.6718 35.4424C38.3997 35.2791 38.2183 34.9707 38.2183 34.6623C38.2183 34.3358 38.3815 34.0456 38.6718 33.8823L77.1481 11.5148C77.4203 11.3516 77.7831 11.3516 78.0552 11.5148L140.713 47.6874C140.985 47.8506 141.167 48.1409 141.167 48.4674C141.167 48.7939 141.003 49.0842 140.713 49.2474L102.237 71.6149C102.11 71.7056 101.946 71.7419 101.783 71.7419ZM40.9394 34.6442L101.783 69.7827L138.445 48.4674L77.6017 13.3471L40.9394 34.6442Z" fill="#0C5AE5"/>
<path d="M65.6644 49.9733V62.055L75.1883 67.5516V55.4699L65.6644 49.9733Z" fill="#5F87ED"/>
<path d="M75.1888 68.4585C75.0256 68.4585 74.8804 68.4222 74.7353 68.3315L65.2115 62.8349C64.9393 62.6716 64.7579 62.3814 64.7579 62.0549V49.9732C64.7579 49.6466 64.9393 49.3564 65.2115 49.1931C65.4836 49.0299 65.8464 49.0299 66.1185 49.1931L75.6423 54.6898C75.9144 54.853 76.0959 55.1433 76.0959 55.4698V67.5515C76.0959 67.878 75.9144 68.1683 75.6423 68.3315C75.4972 68.4222 75.3339 68.4585 75.1888 68.4585ZM66.572 61.5288L74.2818 65.9732V55.9777L66.572 51.5333V61.5288V61.5288Z" fill="#0C5AE5"/>
<path d="M101.783 70.8347V82.9164L140.26 60.5671V48.4673L101.783 70.8347Z" fill="#D4DDFC"/>
<path d="M101.783 83.8234C101.62 83.8234 101.475 83.7871 101.33 83.6964C101.04 83.5331 100.876 83.2429 100.876 82.9163V70.8346C100.876 70.5081 101.04 70.2179 101.33 70.0546L139.806 47.6871C140.078 47.5239 140.423 47.5239 140.713 47.6871C141.004 47.8504 141.167 48.1407 141.167 48.4672V60.5489C141.167 60.8754 141.004 61.1657 140.713 61.3289L102.237 83.6964C102.11 83.7871 101.947 83.8234 101.783 83.8234ZM102.691 71.3607V81.3381L139.353 60.0409V50.0636L102.691 71.3607Z" fill="#0C5AE5"/>
<path d="M125.946 50.3905C123.533 48.9937 123.515 46.7261 125.91 45.3292L109.202 35.6784L82.4082 20.2044C80.0136 21.6012 76.0952 21.6012 73.6825 20.2044L52.8026 32.3587C55.2153 33.7555 55.2335 36.0231 52.8389 37.4199L79.6327 52.8939L96.3402 62.5447C98.7348 61.1479 102.653 61.1479 105.066 62.5447C105.284 62.6717 105.483 62.7987 105.665 62.9438L126.635 50.7533C126.381 50.6445 126.163 50.5175 125.946 50.3905Z" fill="#D4DDFC"/>
<path d="M105.665 63.8325C105.465 63.8325 105.266 63.7599 105.102 63.6511C104.957 63.5423 104.794 63.4334 104.613 63.3246C102.49 62.1091 98.9164 62.091 96.794 63.3246C96.5219 63.4878 96.159 63.4878 95.8869 63.3246L52.3856 38.1997C52.1135 38.0365 51.9321 37.7462 51.9321 37.4197C51.9321 37.0931 52.0953 36.8029 52.3856 36.6396C53.2382 36.1498 53.728 35.5149 53.728 34.8981C53.728 34.2813 53.2201 33.6464 52.3675 33.1385C52.0953 32.9752 51.9139 32.685 51.9139 32.3584C51.9139 32.0319 52.0772 31.7416 52.3675 31.5784L73.2474 19.4423C73.5195 19.279 73.8823 19.279 74.1544 19.4423C76.2769 20.6758 79.8687 20.6758 81.973 19.4423C82.2451 19.279 82.608 19.279 82.8801 19.4423L126.381 44.549C126.654 44.7122 126.835 45.0025 126.835 45.329C126.835 45.6555 126.672 45.9458 126.381 46.1091C125.529 46.5989 125.039 47.2338 125.039 47.8506C125.039 48.4673 125.547 49.1023 126.4 49.6102C126.581 49.7191 126.781 49.8098 126.98 49.9005C127.288 50.0274 127.506 50.3358 127.524 50.6805C127.542 51.0252 127.379 51.3517 127.071 51.515L106.1 63.7055C105.973 63.7962 105.81 63.8325 105.665 63.8325ZM100.694 60.5672C102.436 60.5672 104.159 60.9663 105.52 61.7463C105.574 61.7826 105.647 61.8189 105.701 61.8552L124.821 50.7349C123.769 49.9367 123.207 48.939 123.207 47.8506C123.207 46.9617 123.588 46.1453 124.277 45.4379L82.3903 21.2563C79.8506 22.4899 76.2587 22.4899 73.7009 21.2563L54.4355 32.4673C55.143 33.1748 55.5239 34.0092 55.5239 34.8981C55.5239 35.787 55.1611 36.6034 54.4536 37.3108L96.3586 61.4924C97.6284 60.8756 99.1523 60.5672 100.694 60.5672Z" fill="#0C5AE5"/>
<path d="M100.241 35.424C95.8324 32.8844 87.5421 33.5737 81.6827 36.966C75.8414 40.3583 74.6622 45.1837 79.0704 47.7234C83.4605 50.2631 91.7689 49.5738 97.6283 46.1633C103.47 42.771 104.649 37.9637 100.241 35.424Z" fill="white"/>
<path d="M85.9277 50.1545C83.1159 50.1545 80.5218 49.6284 78.617 48.5219C76.6034 47.3609 75.4968 45.6556 75.4968 43.7509C75.4968 41.0842 77.583 38.3268 81.2293 36.2043C87.4152 32.6125 95.9595 31.9231 100.694 34.6624C102.708 35.8234 103.814 37.5105 103.814 39.4334C103.814 42.1001 101.728 44.8574 98.082 46.9799C94.4901 49.0479 89.9912 50.1545 85.9277 50.1545ZM93.3654 34.7894C89.6647 34.7894 85.4923 35.8234 82.1363 37.7644C79.1068 39.5241 77.3109 41.7554 77.3109 43.7327C77.3109 45.3291 78.5082 46.3631 79.5241 46.9436C83.6601 49.3382 91.5876 48.6307 97.1749 45.3835C100.204 43.6239 102 41.3926 102 39.4152C102 37.8189 100.803 36.7848 99.7872 36.2043C98.1364 35.2429 95.8507 34.7894 93.3654 34.7894Z" fill="#0C5AE5"/>
<path d="M104.141 27.6235L99.6963 30.1995L93.0206 34.0816L76.7847 43.5147L70.1089 47.3968L65.6644 49.9728L75.1883 55.4694L79.6327 52.8934L86.2178 49.0476L102.617 39.5238L109.202 35.6961L113.665 33.1201L104.141 27.6235Z" fill="#5F87ED"/>
<path d="M75.1888 56.3765C75.0256 56.3765 74.8804 56.3403 74.7353 56.2496L65.2115 50.7529C64.9393 50.5897 64.7579 50.2994 64.7579 49.9729C64.7579 49.6464 64.9212 49.3561 65.2115 49.1928L103.688 26.8254C103.96 26.6621 104.323 26.6621 104.595 26.8254L114.119 32.322C114.391 32.4853 114.572 32.7755 114.572 33.1021C114.572 33.4286 114.409 33.7188 114.119 33.8821L75.6423 56.2496C75.4972 56.3403 75.3339 56.3765 75.1888 56.3765ZM67.479 49.9729L75.1888 54.4174L111.851 33.1021L104.141 28.6576L67.479 49.9729Z" fill="#0C5AE5"/>
<path d="M149.093 49.1749V37.0751L47.9404 23.27V35.3517L79.4145 53.5105L84.0041 56.1591L110.616 71.5242L149.093 49.1749Z" fill="white"/>
<path d="M110.617 72.4311C110.453 72.4311 110.308 72.3948 110.163 72.3041L47.4871 36.1316C47.215 35.9683 47.0336 35.6781 47.0336 35.3515V23.2698C47.0336 23.0159 47.1424 22.7619 47.342 22.5805C47.5415 22.4172 47.7955 22.3265 48.0676 22.3628L149.202 36.186C149.655 36.2404 149.982 36.6395 149.982 37.093V49.1747C149.982 49.5012 149.819 49.7915 149.528 49.9548L111.07 72.3041C110.925 72.3948 110.762 72.4311 110.617 72.4311ZM48.8476 34.8254L110.598 70.4719L148.168 48.6305V37.8549L48.8476 24.3039V34.8254Z" fill="#0C5AE5"/>
<path d="M149.093 37.075L122.481 21.728L112.957 16.2313L86.4169 0.902466L47.9406 23.2699L79.4146 41.4287L84.0042 44.0773L110.617 59.4424L149.093 37.075Z" fill="white"/>
<path d="M110.617 60.3495C110.453 60.3495 110.308 60.3132 110.163 60.2225L47.4872 24.05C47.2151 23.8867 47.0337 23.5783 47.0337 23.27C47.0337 22.9434 47.197 22.6532 47.4872 22.4899L85.9636 0.12245C86.2357 -0.0408165 86.5985 -0.0408165 86.8706 0.12245L149.528 36.295C149.801 36.4582 149.982 36.7485 149.982 37.075C149.982 37.4015 149.819 37.6918 149.528 37.8551L111.07 60.2225C110.925 60.3132 110.762 60.3495 110.617 60.3495ZM49.7548 23.2518L110.599 58.3903L147.261 37.075L86.4171 1.95466L49.7548 23.2518Z" fill="#0C5AE5"/>
<path d="M74.4805 38.5807V50.6624L84.0043 56.1591V44.0774L74.4805 38.5807Z" fill="#5F87ED"/>
<path d="M84.0043 57.066C83.841 57.066 83.6959 57.0297 83.5507 56.939L74.0269 51.4424C73.7548 51.2791 73.5734 50.9889 73.5734 50.6624V38.5807C73.5734 38.2541 73.7548 37.9639 74.0269 37.8006C74.299 37.6373 74.6618 37.6373 74.9339 37.8006L84.4578 43.2972C84.7299 43.4605 84.9113 43.7508 84.9113 44.0773V56.159C84.9113 56.4855 84.7299 56.7758 84.4578 56.939C84.3126 57.0297 84.1675 57.066 84.0043 57.066ZM75.3874 50.1363L83.0972 54.5807V44.5852L75.3874 40.1408V50.1363Z" fill="#0C5AE5"/>
<path d="M110.616 59.4425V71.5242L149.093 49.1748V37.075L110.616 59.4425Z" fill="#D4DDFC"/>
<path d="M110.616 72.4311C110.453 72.4311 110.308 72.3948 110.163 72.3041C109.873 72.1408 109.709 71.8506 109.709 71.5241V59.4424C109.709 59.1158 109.873 58.8256 110.163 58.6623L148.639 36.2949C148.911 36.1316 149.256 36.1316 149.546 36.2949C149.837 36.4581 150 36.7484 150 37.0749V49.1566C150 49.4831 149.837 49.7734 149.546 49.9367L111.07 72.3041C110.925 72.3948 110.762 72.4311 110.616 72.4311ZM111.523 59.9685V69.964L148.186 48.6487V38.6713L111.523 59.9685Z" fill="#0C5AE5"/>
<path d="M134.762 38.9981C132.349 37.6013 132.331 35.3337 134.725 33.9368L118.036 24.3041L91.2423 8.83014C88.8477 10.227 84.9293 10.227 82.5166 8.83014L61.6367 20.9663C64.0494 22.3631 64.0676 24.6307 61.673 26.0275L88.4668 41.5015L105.174 51.1523C107.569 49.7555 111.487 49.7555 113.9 51.1523C114.118 51.2793 114.317 51.4063 114.499 51.5514L135.469 39.3609C135.215 39.2521 134.979 39.1251 134.762 38.9981Z" fill="#D4DDFC"/>
<path d="M114.48 52.4401C114.281 52.4401 114.081 52.3675 113.918 52.2406C113.773 52.1317 113.609 52.0229 113.428 51.914C111.306 50.6805 107.714 50.6805 105.609 51.914C105.337 52.0773 104.974 52.0773 104.702 51.914L61.201 26.8073C60.9289 26.6441 60.7475 26.3538 60.7475 26.0273C60.7475 25.7008 60.9108 25.4105 61.201 25.2472C62.0536 24.7574 62.5434 24.1225 62.5434 23.5057C62.5434 22.8889 62.0355 22.254 61.1829 21.7461C60.9108 21.5828 60.7294 21.2926 60.7294 20.966C60.7294 20.6395 60.8926 20.3493 61.1829 20.186L82.0628 8.04988C82.3349 7.88661 82.6977 7.88661 82.9698 8.04988C85.0923 9.28344 88.6842 9.28344 90.7885 8.04988C91.0606 7.88661 91.4234 7.88661 91.6955 8.04988L135.197 33.1566C135.469 33.3198 135.65 33.6101 135.65 33.9366C135.65 34.2631 135.487 34.5534 135.197 34.7167C134.344 35.2065 133.854 35.8414 133.854 36.44C133.854 37.0568 134.362 37.6917 135.215 38.1997C135.396 38.3085 135.596 38.3992 135.814 38.4899C136.122 38.6351 136.34 38.9253 136.358 39.27C136.376 39.6147 136.213 39.9412 135.904 40.1045L114.934 52.295C114.789 52.4038 114.643 52.4401 114.48 52.4401ZM109.51 49.1748C111.251 49.1748 112.975 49.5739 114.335 50.3539C114.389 50.3902 114.462 50.4265 114.516 50.4628L133.637 39.3425C132.585 38.5444 132.022 37.5466 132.022 36.4582C132.022 35.5693 132.385 34.753 133.093 34.0455L91.2238 9.86395C88.6842 11.0975 85.0923 11.0975 82.5345 9.86395L63.2691 21.0567C63.9766 21.7642 64.3575 22.5987 64.3575 23.4876C64.3575 24.3765 63.9766 25.1928 63.2872 25.9003L105.174 50.0818C106.444 49.4832 107.968 49.1748 109.51 49.1748Z" fill="#0C5AE5"/>
<path d="M109.075 24.032C104.666 21.4923 96.3762 22.1817 90.5168 25.574C84.6755 28.9663 83.4963 33.7917 87.9045 36.3314C92.2946 38.8711 100.603 38.1817 106.462 34.7713C112.304 31.379 113.465 26.5717 109.075 24.032Z" fill="white"/>
<path d="M94.798 38.7983C91.9862 38.7983 89.3921 38.2541 87.451 37.1294C85.4374 35.9684 84.3308 34.2632 84.3308 32.3584C84.3308 29.6917 86.417 26.9344 90.0633 24.8119C96.2492 21.22 104.812 20.5307 109.528 23.2699C111.542 24.4309 112.648 26.118 112.648 28.0409C112.648 30.7076 110.562 33.465 106.916 35.5875C103.27 37.6918 98.8071 38.7983 94.798 38.7983ZM102.199 23.3969C98.4987 23.3969 94.3263 24.4309 90.9703 26.372C87.9408 28.1316 86.1267 30.3629 86.1449 32.3584C86.1449 33.9548 87.3422 34.9888 88.358 35.5693C92.4941 37.9639 100.422 37.2564 106.009 34.0092C109.038 32.2496 110.834 30.0183 110.834 28.0409C110.834 26.4446 109.637 25.4105 108.621 24.83C106.952 23.8686 104.685 23.3969 102.199 23.3969Z" fill="#0C5AE5"/>
<path d="M112.957 16.2312L108.512 18.8072L101.837 22.6893L85.6007 32.1224L78.9249 36.0045L74.4805 38.5805L84.0043 44.0771L88.4488 41.5012L95.052 37.6553L111.433 28.1315L118.036 24.3038L122.481 21.7278L112.957 16.2312Z" fill="#5F87ED"/>
<path d="M84.0043 44.9843C83.841 44.9843 83.6959 44.9481 83.5507 44.8573L74.0269 39.3607C73.7548 39.1975 73.5734 38.9072 73.5734 38.5807C73.5734 38.2541 73.7366 37.9639 74.0269 37.8006L112.503 15.4332C112.775 15.2699 113.138 15.2699 113.41 15.4332L122.934 20.9298C123.206 21.0931 123.388 21.3833 123.388 21.7099C123.388 22.0364 123.224 22.3266 122.934 22.4899L84.4578 44.8573C84.3126 44.9481 84.1675 44.9843 84.0043 44.9843ZM76.2945 38.5807L84.0043 43.0251L120.667 21.7099L112.957 17.2654L76.2945 38.5807Z" fill="#0C5AE5"/>
</g>
<defs>
<clipPath id="clip0">
<rect width="150" height="114" fill="white"/>
</clipPath>
</defs>
</svg>
