<svg width="296" height="149" viewBox="0 0 296 149" fill="none" xmlns="http://www.w3.org/2000/svg">
<mask id="mask0" mask-type="alpha" maskUnits="userSpaceOnUse" x="0" y="0" width="296" height="149">
<rect x="0.570801" y="0.299805" width="295.079" height="148.191" fill="white"/>
<rect x="0.570801" y="0.299805" width="295.079" height="148.191" stroke="white"/>
</mask>
<g mask="url(#mask0)">
<path fill-rule="evenodd" clip-rule="evenodd" d="M290.479 12.9858C288.095 12.9858 286.162 14.9211 286.162 17.3084C286.162 19.6957 288.095 21.6309 290.479 21.6309C292.864 21.6309 294.797 19.6957 294.797 17.3084C294.797 14.9211 292.864 12.9858 290.479 12.9858Z" fill="#C0C9E2"/>
<path fill-rule="evenodd" clip-rule="evenodd" d="M290.479 69.5723C288.095 69.5723 286.162 71.5075 286.162 73.8948C286.162 76.2821 288.095 78.2173 290.479 78.2173C292.864 78.2173 294.797 76.2821 294.797 73.8948C294.797 71.5075 292.864 69.5723 290.479 69.5723Z" fill="#C0C9E2"/>
<path fill-rule="evenodd" clip-rule="evenodd" d="M290.479 126.158C288.095 126.158 286.162 128.093 286.162 130.481C286.162 132.868 288.095 134.803 290.479 134.803C292.864 134.803 294.797 132.868 294.797 130.481C294.797 128.093 292.864 126.158 290.479 126.158Z" fill="#C0C9E2"/>
<path fill-rule="evenodd" clip-rule="evenodd" d="M252.797 12.9858C250.412 12.9858 248.479 14.9211 248.479 17.3084C248.479 19.6957 250.412 21.6309 252.797 21.6309C255.182 21.6309 257.115 19.6957 257.115 17.3084C257.115 14.9211 255.182 12.9858 252.797 12.9858Z" fill="#C0C9E2"/>
<path fill-rule="evenodd" clip-rule="evenodd" d="M252.797 69.5723C250.412 69.5723 248.479 71.5075 248.479 73.8948C248.479 76.2821 250.412 78.2173 252.797 78.2173C255.182 78.2173 257.115 76.2821 257.115 73.8948C257.115 71.5075 255.182 69.5723 252.797 69.5723Z" fill="#C0C9E2"/>
<path fill-rule="evenodd" clip-rule="evenodd" d="M275.955 45.6018C275.955 43.2145 274.022 41.2793 271.638 41.2793C269.253 41.2793 267.32 43.2145 267.32 45.6018C267.32 47.9891 269.253 49.9244 271.638 49.9244C274.022 49.9244 275.955 47.9891 275.955 45.6018Z" fill="#C0C9E2"/>
<path fill-rule="evenodd" clip-rule="evenodd" d="M252.797 126.158C250.412 126.158 248.479 128.093 248.479 130.481C248.479 132.868 250.412 134.803 252.797 134.803C255.182 134.803 257.115 132.868 257.115 130.481C257.115 128.093 255.182 126.158 252.797 126.158Z" fill="#C0C9E2"/>
<path fill-rule="evenodd" clip-rule="evenodd" d="M275.955 102.188C275.955 99.8005 274.022 97.8652 271.638 97.8652C269.253 97.8652 267.32 99.8005 267.32 102.188C267.32 104.575 269.253 106.51 271.638 106.51C274.022 106.51 275.955 104.575 275.955 102.188Z" fill="#C0C9E2"/>
<path fill-rule="evenodd" clip-rule="evenodd" d="M215.114 12.9858C212.729 12.9858 210.796 14.9211 210.796 17.3084C210.796 19.6957 212.729 21.6309 215.114 21.6309C217.498 21.6309 219.432 19.6957 219.432 17.3084C219.432 14.9211 217.498 12.9858 215.114 12.9858Z" fill="#C0C9E2"/>
<path fill-rule="evenodd" clip-rule="evenodd" d="M215.114 69.5723C212.729 69.5723 210.796 71.5075 210.796 73.8948C210.796 76.2821 212.729 78.2173 215.114 78.2173C217.498 78.2173 219.432 76.2821 219.432 73.8948C219.432 71.5075 217.498 69.5723 215.114 69.5723Z" fill="#C0C9E2"/>
<path fill-rule="evenodd" clip-rule="evenodd" d="M238.273 45.6018C238.273 43.2145 236.34 41.2793 233.955 41.2793C231.57 41.2793 229.637 43.2145 229.637 45.6018C229.637 47.9891 231.57 49.9244 233.955 49.9244C236.34 49.9244 238.273 47.9891 238.273 45.6018Z" fill="#C0C9E2"/>
<path fill-rule="evenodd" clip-rule="evenodd" d="M215.114 126.158C212.729 126.158 210.796 128.093 210.796 130.481C210.796 132.868 212.729 134.803 215.114 134.803C217.498 134.803 219.432 132.868 219.432 130.481C219.432 128.093 217.498 126.158 215.114 126.158Z" fill="#C0C9E2"/>
<path fill-rule="evenodd" clip-rule="evenodd" d="M238.273 102.188C238.273 99.8005 236.34 97.8652 233.955 97.8652C231.57 97.8652 229.637 99.8005 229.637 102.188C229.637 104.575 231.57 106.51 233.955 106.51C236.34 106.51 238.273 104.575 238.273 102.188Z" fill="#C0C9E2"/>
<path fill-rule="evenodd" clip-rule="evenodd" d="M177.431 12.9858C175.046 12.9858 173.113 14.9211 173.113 17.3084C173.113 19.6957 175.046 21.6309 177.431 21.6309C179.816 21.6309 181.749 19.6957 181.749 17.3084C181.749 14.9211 179.816 12.9858 177.431 12.9858Z" fill="#C0C9E2"/>
<path fill-rule="evenodd" clip-rule="evenodd" d="M177.431 69.5723C175.046 69.5723 173.113 71.5075 173.113 73.8948C173.113 76.2821 175.046 78.2173 177.431 78.2173C179.816 78.2173 181.749 76.2821 181.749 73.8948C181.749 71.5075 179.816 69.5723 177.431 69.5723Z" fill="#C0C9E2"/>
<path fill-rule="evenodd" clip-rule="evenodd" d="M200.59 45.6018C200.59 43.2145 198.657 41.2793 196.272 41.2793C193.888 41.2793 191.955 43.2145 191.955 45.6018C191.955 47.9891 193.888 49.9244 196.272 49.9244C198.657 49.9244 200.59 47.9891 200.59 45.6018Z" fill="#C0C9E2"/>
<path fill-rule="evenodd" clip-rule="evenodd" d="M177.431 126.158C175.046 126.158 173.113 128.093 173.113 130.481C173.113 132.868 175.046 134.803 177.431 134.803C179.816 134.803 181.749 132.868 181.749 130.481C181.749 128.093 179.816 126.158 177.431 126.158Z" fill="#C0C9E2"/>
<path fill-rule="evenodd" clip-rule="evenodd" d="M200.59 102.188C200.59 99.8005 198.657 97.8652 196.272 97.8652C193.888 97.8652 191.955 99.8005 191.955 102.188C191.955 104.575 193.888 106.51 196.272 106.51C198.657 106.51 200.59 104.575 200.59 102.188Z" fill="#C0C9E2"/>
<path fill-rule="evenodd" clip-rule="evenodd" d="M139.748 12.9858C137.364 12.9858 135.431 14.9211 135.431 17.3084C135.431 19.6957 137.364 21.6309 139.748 21.6309C142.133 21.6309 144.066 19.6957 144.066 17.3084C144.066 14.9211 142.133 12.9858 139.748 12.9858Z" fill="#C0C9E2"/>
<path fill-rule="evenodd" clip-rule="evenodd" d="M139.748 69.5723C137.364 69.5723 135.431 71.5075 135.431 73.8948C135.431 76.2821 137.364 78.2173 139.748 78.2173C142.133 78.2173 144.066 76.2821 144.066 73.8948C144.066 71.5075 142.133 69.5723 139.748 69.5723Z" fill="#C0C9E2"/>
<path fill-rule="evenodd" clip-rule="evenodd" d="M162.907 45.6018C162.907 43.2145 160.974 41.2793 158.589 41.2793C156.205 41.2793 154.271 43.2145 154.271 45.6018C154.271 47.9891 156.205 49.9244 158.589 49.9244C160.974 49.9244 162.907 47.9891 162.907 45.6018Z" fill="#C0C9E2"/>
<path fill-rule="evenodd" clip-rule="evenodd" d="M139.748 126.158C137.364 126.158 135.431 128.093 135.431 130.481C135.431 132.868 137.364 134.803 139.748 134.803C142.133 134.803 144.066 132.868 144.066 130.481C144.066 128.093 142.133 126.158 139.748 126.158Z" fill="#C0C9E2"/>
<path fill-rule="evenodd" clip-rule="evenodd" d="M162.907 102.188C162.907 99.8005 160.974 97.8652 158.589 97.8652C156.205 97.8652 154.271 99.8005 154.271 102.188C154.271 104.575 156.205 106.51 158.589 106.51C160.974 106.51 162.907 104.575 162.907 102.188Z" fill="#C0C9E2"/>
<path fill-rule="evenodd" clip-rule="evenodd" d="M102.066 12.9858C99.6812 12.9858 97.748 14.9211 97.748 17.3084C97.748 19.6957 99.6812 21.6309 102.066 21.6309C104.451 21.6309 106.384 19.6957 106.384 17.3084C106.384 14.9211 104.451 12.9858 102.066 12.9858Z" fill="#C0C9E2"/>
<path fill-rule="evenodd" clip-rule="evenodd" d="M102.066 69.5723C99.6812 69.5723 97.748 71.5075 97.748 73.8948C97.748 76.2821 99.6812 78.2173 102.066 78.2173C104.451 78.2173 106.384 76.2821 106.384 73.8948C106.384 71.5075 104.451 69.5723 102.066 69.5723Z" fill="#C0C9E2"/>
<path fill-rule="evenodd" clip-rule="evenodd" d="M125.225 45.6018C125.225 43.2145 123.291 41.2793 120.907 41.2793C118.522 41.2793 116.589 43.2145 116.589 45.6018C116.589 47.9891 118.522 49.9244 120.907 49.9244C123.291 49.9244 125.225 47.9891 125.225 45.6018Z" fill="#C0C9E2"/>
<path fill-rule="evenodd" clip-rule="evenodd" d="M102.066 126.158C99.6812 126.158 97.748 128.093 97.748 130.481C97.748 132.868 99.6812 134.803 102.066 134.803C104.451 134.803 106.384 132.868 106.384 130.481C106.384 128.093 104.451 126.158 102.066 126.158Z" fill="#C0C9E2"/>
<path fill-rule="evenodd" clip-rule="evenodd" d="M125.225 102.188C125.225 99.8005 123.291 97.8652 120.907 97.8652C118.522 97.8652 116.589 99.8005 116.589 102.188C116.589 104.575 118.522 106.51 120.907 106.51C123.291 106.51 125.225 104.575 125.225 102.188Z" fill="#C0C9E2"/>
<path fill-rule="evenodd" clip-rule="evenodd" d="M64.3823 12.9858C61.9976 12.9858 60.0645 14.9211 60.0645 17.3084C60.0645 19.6957 61.9976 21.6309 64.3823 21.6309C66.767 21.6309 68.7001 19.6957 68.7001 17.3084C68.7001 14.9211 66.767 12.9858 64.3823 12.9858Z" fill="#C0C9E2"/>
<path fill-rule="evenodd" clip-rule="evenodd" d="M64.3823 69.5723C61.9976 69.5723 60.0645 71.5075 60.0645 73.8948C60.0645 76.2821 61.9976 78.2173 64.3823 78.2173C66.767 78.2173 68.7001 76.2821 68.7001 73.8948C68.7001 71.5075 66.767 69.5723 64.3823 69.5723Z" fill="#C0C9E2"/>
<path fill-rule="evenodd" clip-rule="evenodd" d="M87.5419 45.6018C87.5419 43.2145 85.6088 41.2793 83.2241 41.2793C80.8394 41.2793 78.9062 43.2145 78.9062 45.6018C78.9062 47.9891 80.8394 49.9244 83.2241 49.9244C85.6088 49.9244 87.5419 47.9891 87.5419 45.6018Z" fill="#C0C9E2"/>
<path fill-rule="evenodd" clip-rule="evenodd" d="M64.3823 126.158C61.9976 126.158 60.0645 128.093 60.0645 130.481C60.0645 132.868 61.9976 134.803 64.3823 134.803C66.767 134.803 68.7001 132.868 68.7001 130.481C68.7001 128.093 66.767 126.158 64.3823 126.158Z" fill="#C0C9E2"/>
<path fill-rule="evenodd" clip-rule="evenodd" d="M87.5419 102.188C87.5419 99.8005 85.6088 97.8652 83.2241 97.8652C80.8394 97.8652 78.9062 99.8005 78.9062 102.188C78.9062 104.575 80.8394 106.51 83.2241 106.51C85.6088 106.51 87.5419 104.575 87.5419 102.188Z" fill="#C0C9E2"/>
<path fill-rule="evenodd" clip-rule="evenodd" d="M26.6997 12.9858C24.315 12.9858 22.3818 14.9211 22.3818 17.3084C22.3818 19.6957 24.315 21.6309 26.6997 21.6309C29.0844 21.6309 31.0175 19.6957 31.0175 17.3084C31.0175 14.9211 29.0844 12.9858 26.6997 12.9858Z" fill="#C0C9E2"/>
<path fill-rule="evenodd" clip-rule="evenodd" d="M26.6997 69.5723C24.315 69.5723 22.3818 71.5075 22.3818 73.8948C22.3818 76.2821 24.315 78.2173 26.6997 78.2173C29.0844 78.2173 31.0175 76.2821 31.0175 73.8948C31.0175 71.5075 29.0844 69.5723 26.6997 69.5723Z" fill="#C0C9E2"/>
<path fill-rule="evenodd" clip-rule="evenodd" d="M49.8583 45.6018C49.8583 43.2145 47.9252 41.2793 45.5405 41.2793C43.1558 41.2793 41.2227 43.2145 41.2227 45.6018C41.2227 47.9891 43.1558 49.9244 45.5405 49.9244C47.9252 49.9244 49.8583 47.9891 49.8583 45.6018Z" fill="#C0C9E2"/>
<path fill-rule="evenodd" clip-rule="evenodd" d="M26.6997 126.158C24.315 126.158 22.3818 128.093 22.3818 130.481C22.3818 132.868 24.315 134.803 26.6997 134.803C29.0844 134.803 31.0175 132.868 31.0175 130.481C31.0175 128.093 29.0844 126.158 26.6997 126.158Z" fill="#C0C9E2"/>
<path fill-rule="evenodd" clip-rule="evenodd" d="M49.8583 102.188C49.8583 99.8005 47.9252 97.8652 45.5405 97.8652C43.1558 97.8652 41.2227 99.8005 41.2227 102.188C41.2227 104.575 43.1558 106.51 45.5405 106.51C47.9252 106.51 49.8583 104.575 49.8583 102.188Z" fill="#C0C9E2"/>
<path fill-rule="evenodd" clip-rule="evenodd" d="M12.1767 45.6018C12.1767 43.2145 10.2435 41.2793 7.85884 41.2793C5.47414 41.2793 3.54102 43.2145 3.54102 45.6018C3.54102 47.9891 5.47414 49.9244 7.85884 49.9244C10.2435 49.9244 12.1767 47.9891 12.1767 45.6018Z" fill="#C0C9E2"/>
<path fill-rule="evenodd" clip-rule="evenodd" d="M12.1767 102.188C12.1767 99.8005 10.2435 97.8652 7.85884 97.8652C5.47414 97.8652 3.54102 99.8005 3.54102 102.188C3.54102 104.575 5.47414 106.51 7.85884 106.51C10.2435 106.51 12.1767 104.575 12.1767 102.188Z" fill="#C0C9E2"/>
</g>
</svg>
