<svg width="150" height="114" viewBox="0 0 150 114" fill="none" xmlns="http://www.w3.org/2000/svg">
<circle cx="54.4463" cy="59.4463" r="54.4463" fill="#2253FF"/>
<path d="M129.104 70.6903L129.085 79.6562C129.066 82.9387 126.909 86.2212 122.595 88.7346C113.911 93.7803 99.7866 93.7803 91.0646 88.7346C86.6754 86.2024 84.4808 82.8636 84.4808 79.5436L84.4996 70.5778C84.4808 73.8978 86.6942 77.2365 91.0833 79.7687C99.8241 84.8144 113.948 84.8144 122.614 79.7687C126.947 77.2553 129.104 73.9728 129.104 70.6903Z" fill="#D4DDFC"/>
<path d="M106.857 93.4231C100.968 93.4231 95.0966 92.1289 90.5949 89.5404C86.0369 86.9144 83.5235 83.3505 83.5422 79.5241L83.561 70.5582C83.561 70.033 83.9736 69.6204 84.4988 69.6204C85.024 69.6204 85.4367 70.0518 85.4367 70.5582V70.577C85.4367 73.6907 87.6125 76.673 91.5515 78.9426C100.011 83.8195 113.741 83.8382 122.144 78.9426C126.008 76.6918 128.147 73.7657 128.165 70.6708C128.165 70.1456 128.54 69.7329 129.103 69.7329C129.628 69.7329 130.041 70.1643 130.041 70.6708L130.022 79.6366C130.004 83.4068 127.546 86.9144 123.082 89.5216C118.618 92.1289 112.728 93.4231 106.857 93.4231ZM85.4367 76.0916L85.4179 79.5429C85.4179 82.6753 87.575 85.6389 91.5327 87.9273C99.9922 92.8229 113.722 92.8229 122.126 87.9273C125.989 85.6764 128.128 82.7503 128.147 79.6554L128.165 76.2041C126.984 77.836 125.295 79.3178 123.101 80.5745C114.173 85.7515 99.5983 85.7702 90.6324 80.5745C88.3628 79.2803 86.6184 77.7609 85.4367 76.0916Z" fill="#0C5AE5"/>
<path d="M122.521 61.4995C131.262 66.5451 131.3 74.7232 122.615 79.7688C113.931 84.8145 99.8066 84.8145 91.0845 79.7688C82.3437 74.7232 82.3062 66.5451 90.9907 61.4995C99.6753 56.4538 113.799 56.4538 122.521 61.4995Z" fill="white"/>
<path d="M106.877 84.4572C100.987 84.4572 95.1163 83.1629 90.6146 80.5745C86.0753 77.9485 83.5619 74.4034 83.5619 70.5957C83.5619 66.8068 86.0191 63.2804 90.502 60.6732C99.4304 55.4962 114.005 55.4775 122.989 60.6732C127.528 63.2992 130.042 66.8443 130.042 70.652C130.042 74.4409 127.585 77.9672 123.102 80.5745C118.638 83.1629 112.767 84.4572 106.877 84.4572ZM106.746 58.6474C101.212 58.6474 95.679 59.8666 91.4586 62.3051C87.5759 64.5559 85.4376 67.5008 85.4376 70.5957C85.4376 73.7094 87.6134 76.673 91.5524 78.9614C100.012 83.8382 113.742 83.857 122.145 78.9614C126.028 76.7105 128.166 73.7656 128.166 70.6707C128.166 67.557 125.99 64.5934 122.051 62.3238C117.831 59.8666 112.279 58.6474 106.746 58.6474Z" fill="#0C5AE5"/>
<path d="M122.521 49.7205C131.262 54.7662 131.3 62.9443 122.615 67.9899C113.931 73.0356 99.8066 73.0356 91.0845 67.9899C82.3437 62.9443 82.3062 54.7662 90.9907 49.7205C99.6753 44.6749 113.799 44.6749 122.521 49.7205Z" fill="white"/>
<path d="M106.877 72.678C101.006 72.678 95.1163 71.3837 90.6146 68.7952C86.0753 66.1692 83.5619 62.6242 83.5619 58.8165C83.5619 55.0275 86.0191 51.5012 90.502 48.894C99.4304 43.6983 114.005 43.6983 122.989 48.894C127.528 51.52 130.042 55.0651 130.042 58.8727C130.042 62.6617 127.585 66.188 123.083 68.7952C118.638 71.3837 112.767 72.678 106.877 72.678ZM106.746 46.8682C101.212 46.8682 95.679 48.0874 91.4586 50.5446C87.5759 52.7955 85.4376 55.7403 85.4376 58.8352C85.4376 61.9489 87.6134 64.9125 91.5524 67.1821C100.012 72.0777 113.742 72.0777 122.145 67.1821C126.028 64.9313 128.166 61.9864 128.166 58.8915C128.166 55.7778 125.99 52.8142 122.051 50.5446C117.831 48.0874 112.279 46.8682 106.746 46.8682Z" fill="#0C5AE5"/>
<path d="M129.104 58.9108L129.085 67.8766C129.066 71.1591 126.909 74.4416 122.595 76.9551C113.911 82.0007 99.7866 82.0007 91.0646 76.9551C86.6754 74.4229 84.4808 71.0841 84.4808 67.7641L84.4996 58.7982C84.4808 62.1182 86.6942 65.457 91.0833 67.9892C99.8241 73.0348 113.948 73.0348 122.614 67.9892C126.947 65.4757 129.104 62.1932 129.104 58.9108Z" fill="#D4DDFC"/>
<path d="M106.857 81.6436C100.968 81.6436 95.0966 80.3493 90.5949 77.7608C86.0369 75.1348 83.5235 71.571 83.5422 67.7446L83.561 58.7787C83.561 58.2535 83.9736 57.8408 84.4988 57.8408C85.024 57.8408 85.4367 58.2722 85.4367 58.7787V58.7974C85.4367 61.9111 87.6125 64.8935 91.5515 67.1631C100.011 72.0587 113.741 72.0587 122.144 67.1631C126.008 64.9122 128.147 61.9861 128.165 58.8912C128.165 58.366 128.578 57.9534 129.103 57.9534C129.628 57.9534 130.041 58.3848 130.041 58.8912L130.022 67.8571C130.004 71.6273 127.546 75.1348 123.082 77.7421C118.618 80.3493 112.728 81.6436 106.857 81.6436ZM85.4367 64.312L85.4179 67.7633C85.4179 70.8957 87.575 73.8594 91.5327 76.1477C99.9922 81.0246 113.722 81.0433 122.126 76.1477C125.989 73.8969 128.128 70.9708 128.147 67.8759L128.165 64.4246C126.984 66.0564 125.295 67.5382 123.101 68.795C114.173 73.9907 99.617 73.9907 90.6324 68.795C88.3628 67.5007 86.6184 65.9814 85.4367 64.312Z" fill="#0C5AE5"/>
<path d="M122.521 37.94C131.262 42.9857 131.3 51.1637 122.615 56.2094C113.931 61.2551 99.8066 61.2551 91.0845 56.2094C82.3437 51.1637 82.3062 42.9857 90.9907 37.94C99.6753 32.8943 113.799 32.8943 122.521 37.94Z" fill="white"/>
<path d="M106.877 60.9169C101.006 60.9169 95.1163 59.6227 90.6146 57.0342C86.0753 54.4082 83.5619 50.8631 83.5619 47.0554C83.5619 43.2665 86.0191 39.7402 90.502 37.1329C99.4304 31.956 114.005 31.9372 122.989 37.1329C127.528 39.7589 130.042 43.304 130.042 47.1117C130.042 50.9006 127.585 54.4269 123.083 57.0342C118.638 59.6039 112.767 60.9169 106.877 60.9169ZM106.746 35.0884C101.212 35.0884 95.679 36.3076 91.4586 38.7648C87.5759 41.0156 85.4376 43.9605 85.4376 47.0554C85.4376 50.1691 87.6134 53.1327 91.5524 55.4023C100.012 60.2979 113.742 60.2979 122.145 55.4023C126.028 53.1515 128.166 50.2066 128.166 47.1117C128.166 43.998 125.99 41.0344 122.051 38.7648C117.831 36.3076 112.279 35.0884 106.746 35.0884Z" fill="#0C5AE5"/>
<path d="M129.104 47.1313L129.085 56.0972C129.066 59.3797 126.909 62.6622 122.595 65.1757C113.911 70.2213 99.7866 70.2213 91.0646 65.1757C86.6754 62.6434 84.4808 59.3047 84.4808 55.9847L84.4996 47.0188C84.4808 50.3388 86.6942 53.6776 91.0833 56.2098C99.8241 61.2554 113.948 61.2554 122.614 56.2098C126.947 53.6963 129.104 50.4138 129.104 47.1313Z" fill="#D4DDFC"/>
<path d="M106.857 69.864C100.968 69.864 95.0966 68.5698 90.5949 65.9813C86.0369 63.3553 83.5235 59.7915 83.5422 55.965L83.561 46.9991C83.561 46.4739 83.9736 46.0613 84.4988 46.0613C85.024 46.0613 85.4367 46.4927 85.4367 46.9991V47.0179C85.4367 50.1316 87.6125 53.1139 91.5515 55.3835C100.011 60.2791 113.741 60.2791 122.144 55.3835C126.008 53.1327 128.147 50.2066 128.165 47.1117C128.165 46.5865 128.578 46.1738 129.103 46.1738C129.572 46.1551 130.041 46.5865 130.041 47.1117L130.022 56.0776C130.004 59.8477 127.546 63.3553 123.082 65.9625C118.599 68.5698 112.728 69.864 106.857 69.864ZM85.4367 52.5325L85.4179 55.965C85.4179 59.0974 87.575 62.0611 91.5327 64.3494C99.9922 69.2263 113.722 69.2263 122.126 64.3494C125.989 62.0986 128.128 59.1725 128.147 56.0963L128.165 52.645C126.984 54.2769 125.295 55.7587 123.101 57.0154C114.173 62.1924 99.617 62.2111 90.6324 57.0154C88.3628 55.7212 86.6184 54.2019 85.4367 52.5325Z" fill="#0C5AE5"/>
<path d="M122.521 26.1612C131.262 31.2068 131.3 39.3849 122.615 44.4306C113.931 49.4762 99.8066 49.4762 91.0845 44.4306C82.3437 39.3849 82.3062 31.2068 90.9907 26.1612C99.6753 21.1155 113.799 21.1155 122.521 26.1612Z" fill="white"/>
<path d="M106.877 49.1378C100.987 49.1378 95.1163 47.8436 90.6146 45.2551C86.0753 42.6291 83.5619 39.084 83.5619 35.2764C83.5619 31.4874 86.0191 27.9798 90.502 25.3726C99.4304 20.1769 114.005 20.1769 122.989 25.3726C127.528 27.9986 130.042 31.5437 130.042 35.3514C130.042 39.1403 127.585 42.6666 123.102 45.2739C118.638 47.8436 112.767 49.1378 106.877 49.1378ZM106.746 23.3093C101.212 23.3093 95.679 24.5285 91.4586 26.9857C87.5759 29.2366 85.4376 32.1814 85.4376 35.2764C85.4376 38.39 87.6134 41.3536 91.5524 43.6233C100.012 48.5188 113.742 48.5188 122.145 43.6233C126.028 41.3724 128.166 38.4275 128.166 35.3326C128.166 32.2189 125.99 29.2553 122.051 26.9857C117.831 24.5285 112.279 23.3093 106.746 23.3093Z" fill="#0C5AE5"/>
<path d="M129.104 35.352L129.085 44.3179C129.066 47.6004 126.909 50.8829 122.595 53.3964C113.911 58.442 99.7866 58.442 91.0646 53.3964C86.6754 50.8642 84.4808 47.5254 84.4808 44.2054L84.4996 35.2395C84.4808 38.5595 86.6942 41.8983 91.0833 44.4305C99.8241 49.4761 113.948 49.4761 122.614 44.4305C126.947 41.917 129.104 38.6533 129.104 35.352Z" fill="#D4DDFC"/>
<path d="M106.857 58.0847C100.968 58.0847 95.0966 56.7905 90.5949 54.202C86.0369 51.576 83.5235 48.0122 83.5422 44.1857L83.561 35.2198C83.561 34.6946 83.9736 34.282 84.4988 34.282C85.024 34.282 85.4367 34.7134 85.4367 35.2198V35.2386C85.4367 38.3523 87.6125 41.3346 91.5515 43.6043C100.011 48.4998 113.741 48.4998 122.144 43.6043C126.008 41.3534 128.147 38.4273 128.165 35.3324C128.165 34.8072 128.578 34.3945 129.103 34.3945C129.628 34.3945 130.041 34.8259 130.041 35.3324L130.022 44.2983C130.004 48.0684 127.546 51.576 123.082 54.1832C118.618 56.7905 112.728 58.0847 106.857 58.0847ZM85.4367 40.7532L85.4179 44.2045C85.4179 47.3369 87.575 50.3005 91.5327 52.5889C99.9922 57.4845 113.722 57.4657 122.126 52.5889C125.989 50.338 128.128 47.4119 128.147 44.3358L128.165 40.8845C126.984 42.5163 125.295 43.9982 123.101 45.2549C114.173 50.4506 99.5983 50.4506 90.6324 45.2549C88.3628 43.9419 86.6184 42.4226 85.4367 40.7532Z" fill="#0C5AE5"/>
<path d="M118.31 13.366C127.051 18.4117 127.088 26.5898 118.404 31.6354C109.719 36.6811 95.595 36.6811 86.873 31.6354C78.151 26.5898 78.0947 18.4117 86.7605 13.366C95.445 8.32037 109.569 8.32037 118.31 13.366Z" fill="white"/>
<path d="M102.667 36.3246C96.7961 36.3246 90.9064 35.0304 86.4047 32.4419C81.8655 29.8159 79.3521 26.2708 79.3521 22.4631C79.3521 18.6742 81.8092 15.1479 86.2922 12.5406C95.2205 7.36368 109.795 7.34492 118.779 12.5406C123.319 15.1666 125.832 18.7117 125.832 22.5194C125.832 26.3083 123.375 29.8347 118.873 32.4419C114.409 35.0304 108.538 36.3246 102.667 36.3246ZM102.517 10.5149C96.9837 10.5149 91.4504 11.7341 87.23 14.1725C83.3473 16.4233 81.209 19.3682 81.209 22.4631C81.209 25.5768 83.3848 28.5404 87.3238 30.81C95.7833 35.7056 109.513 35.7056 117.917 30.81C121.799 28.5592 123.938 25.6143 123.938 22.5194C123.938 19.4057 121.762 16.4421 117.823 14.1725C113.602 11.7341 108.05 10.5149 102.517 10.5149Z" fill="#0C5AE5"/>
<path d="M124.895 22.5577L124.876 31.5236C124.876 34.8061 122.7 38.0886 118.386 40.602C109.701 45.6477 95.5774 45.6477 86.8553 40.602C82.4662 38.0698 80.2716 34.7311 80.2716 31.4111L80.2904 22.4452C80.2904 25.7652 82.4849 29.104 86.8741 31.6362C95.6149 36.6818 109.739 36.6818 118.405 31.6362C122.719 29.1227 124.876 25.8402 124.895 22.5577Z" fill="#D4DDFC"/>
<path d="M102.629 45.2908C96.7394 45.2908 90.8684 43.9965 86.3667 41.4081C81.8088 38.7821 79.2953 35.2182 79.3141 31.3918L79.3328 22.4259C79.3328 21.9007 79.7455 21.488 80.2707 21.488C80.7959 21.488 81.2085 21.9194 81.2085 22.4259V22.4446C81.2085 25.5583 83.3844 28.5407 87.3233 30.8103C95.7828 35.7059 109.513 35.7059 117.916 30.8103C121.78 28.5595 123.918 25.6334 123.937 22.5384C123.937 22.0132 124.35 21.6006 124.875 21.6006C125.4 21.6006 125.813 22.032 125.813 22.5384L125.794 31.5043C125.775 35.2745 123.318 38.7821 118.854 41.3893C114.39 43.9965 108.519 45.2908 102.629 45.2908ZM81.2085 27.9405L81.1898 31.3918C81.1898 34.5242 83.3468 37.4878 87.3046 39.7762C95.764 44.653 109.494 44.6718 117.897 39.7762C121.761 37.5253 123.9 34.5992 123.918 31.5043L123.937 28.053C122.755 29.6849 121.067 31.1667 118.873 32.4234C109.944 37.6004 95.3889 37.6191 86.4042 32.4234C84.1534 31.1479 82.409 29.6099 81.2085 27.9405Z" fill="#0C5AE5"/>
<path d="M83.9744 72.5847C92.7152 77.6303 92.7527 85.8084 84.0682 90.8541C75.3837 95.8997 61.2596 95.8997 52.5375 90.8541C43.7967 85.8084 43.7592 77.6303 52.4438 72.5847C61.1283 67.539 75.2336 67.539 83.9744 72.5847Z" fill="white"/>
<path d="M68.3301 95.5426C62.4403 95.5426 56.5694 94.2483 52.0677 91.6599C47.5285 89.0339 45.015 85.4888 45.015 81.6811C45.015 77.8922 47.4722 74.3658 51.9551 71.7586C60.8835 66.5629 75.4578 66.5629 84.4424 71.7586C88.9816 74.3846 91.4951 77.9297 91.4951 81.7374C91.4951 85.5263 89.0379 89.0526 84.5549 91.6599C80.0908 94.2483 74.2198 95.5426 68.3301 95.5426ZM68.1988 69.7328C62.6654 69.7328 57.1321 70.952 52.9117 73.3905C49.029 75.6413 46.8907 78.5862 46.8907 81.6811C46.8907 84.7948 49.0665 87.7584 53.0055 90.028C61.465 94.9048 75.1952 94.9236 83.5983 90.028C87.481 87.7771 89.6194 84.8323 89.6194 81.7374C89.6194 78.6237 87.4435 75.6601 83.5045 73.3905C79.2842 70.952 73.7321 69.7328 68.1988 69.7328Z" fill="#0C5AE5"/>
<path d="M90.5583 81.7754L90.5395 90.7413C90.5395 94.0238 88.3637 97.3062 84.0496 99.8197C75.365 104.865 61.241 104.865 52.5189 99.8197C48.1298 97.2875 45.9352 93.9487 45.9352 90.6287L45.9539 81.6628C45.9352 84.9828 48.1485 88.3216 52.5377 90.8538C61.2785 95.8995 75.4026 95.8995 84.0683 90.8538C88.4012 88.3404 90.5583 85.0579 90.5583 81.7754Z" fill="#D4DDFC"/>
<path d="M68.3115 104.508C62.4405 104.508 56.5508 103.214 52.0491 100.625C47.4911 97.9995 44.9777 94.4356 44.9964 90.6092L45.0152 81.6433C45.0152 81.1181 45.4279 80.7054 45.9531 80.7054C46.4783 80.7054 46.8909 81.1369 46.8909 81.6433C46.8909 84.7757 49.048 87.7394 53.0057 90.0277C61.4652 94.9046 75.1953 94.9233 83.5985 90.0277C87.4625 87.7769 89.6008 84.8508 89.6195 81.7746C89.6195 81.2494 90.0322 80.8368 90.5574 80.8368C91.0638 80.9118 91.4952 81.2682 91.4952 81.7746L91.4765 90.7405C91.4577 94.5107 89.0006 98.0182 84.5364 100.625C80.0534 103.214 74.1825 104.508 68.3115 104.508ZM46.8909 87.1766L46.8722 90.6092C46.8722 93.7416 49.0292 96.7052 52.987 98.9936C61.4464 103.889 75.1766 103.889 83.5798 98.9936C87.4437 96.7427 89.582 93.8166 89.6008 90.7405L89.6195 87.2892C88.4378 88.921 86.7497 90.4029 84.5551 91.6596C75.6268 96.8553 61.0525 96.8553 52.0866 91.6596C49.817 90.3653 48.0726 88.846 46.8909 87.1766Z" fill="#0C5AE5"/>
<path d="M83.9744 60.8052C92.7152 65.8509 92.7527 74.029 84.0682 79.0746C75.3837 84.1203 61.2596 84.1203 52.5375 79.0746C43.7967 74.029 43.7592 65.8509 52.4438 60.8052C61.1283 55.7596 75.2336 55.7596 83.9744 60.8052Z" fill="white"/>
<path d="M68.3301 83.7818C62.4403 83.7818 56.5694 82.4875 52.0677 79.899C47.5285 77.2731 45.015 73.728 45.015 69.9203C45.015 66.1313 47.4722 62.605 51.9551 59.9978C60.8835 54.8208 75.4578 54.8021 84.4424 59.9978C88.9816 62.6238 91.4951 66.1689 91.4951 69.9766C91.4951 73.7655 89.0379 77.2918 84.5549 79.899C80.0908 82.4688 74.2198 83.7818 68.3301 83.7818ZM68.1988 57.9533C62.6654 57.9533 57.1321 59.1725 52.9117 61.6296C49.029 63.8805 46.8907 66.8254 46.8907 69.9203C46.8907 73.034 49.0665 75.9976 53.0055 78.2859C61.465 83.1628 75.1952 83.1815 83.5983 78.2859C87.481 76.0351 89.6194 73.0902 89.6194 69.9953C89.6194 66.8816 87.4435 63.918 83.5045 61.6484C79.2842 59.1725 73.7321 57.9533 68.1988 57.9533Z" fill="#0C5AE5"/>
<path d="M90.5583 69.996L90.5395 78.9619C90.5395 82.2443 88.3637 85.5268 84.0496 88.0403C75.365 93.0859 61.241 93.0859 52.5189 88.0403C48.1298 85.5081 45.9352 82.1693 45.9352 78.8493L45.9539 69.8834C45.9352 73.2034 48.1485 76.5422 52.5377 79.0744C61.2785 84.12 75.4026 84.12 84.0683 79.0744C88.4012 76.5609 90.5583 73.2784 90.5583 69.996Z" fill="#D4DDFC"/>
<path d="M68.3115 92.7285C62.4405 92.7285 56.5508 91.4343 52.0491 88.8458C47.4911 86.2198 44.9777 82.656 44.9964 78.8295L45.0152 69.8636C45.0152 69.3384 45.4279 68.9258 45.9531 68.9258C46.4783 68.9258 46.8909 69.3572 46.8909 69.8636C46.8909 72.9961 49.048 75.9597 53.0057 78.2481C61.4652 83.1249 75.1953 83.1436 83.5985 78.2481C87.4625 75.9972 89.6008 73.0711 89.6195 69.9762C89.6195 69.451 90.0322 69.0383 90.5574 69.0383C91.0826 69.0383 91.4952 69.4697 91.4952 69.9762L91.4765 78.9421C91.4577 82.7122 89.0006 86.2198 84.5364 88.827C80.0534 91.4343 74.1825 92.7285 68.3115 92.7285ZM46.8909 75.397L46.8722 78.8295C46.8722 81.9619 49.0292 84.9256 52.987 87.2139C61.4464 92.1095 75.1766 92.1095 83.5798 87.2139C87.4437 84.9631 89.582 82.037 89.6008 78.9608L89.6195 75.5095C88.4378 77.1414 86.7497 78.6232 84.5551 79.8799C75.6268 85.0569 61.0525 85.0756 52.0866 79.8799C49.817 78.5857 48.0726 77.0664 46.8909 75.397Z" fill="#0C5AE5"/>
<path d="M83.9744 48.9506C92.7152 53.9963 92.7527 62.1744 84.0682 67.22C75.3837 72.2657 61.2596 72.2657 52.5375 67.22C43.7967 62.1744 43.7592 53.9963 52.4438 48.9506C61.1283 43.905 75.2336 43.905 83.9744 48.9506Z" fill="white"/>
<path d="M68.3301 71.9273C62.4591 71.9273 56.5694 70.6331 52.0677 68.0446C47.5285 65.4186 45.015 61.8735 45.015 58.0659C45.015 54.2769 47.4722 50.7506 51.9551 48.1434C60.8835 42.9477 75.4578 42.9477 84.4424 48.1434C88.9816 50.7694 91.4951 54.3144 91.4951 58.1221C91.4951 61.9111 89.0379 65.4374 84.5549 68.0446C80.0908 70.6331 74.2198 71.9273 68.3301 71.9273ZM68.1988 46.0988C62.6654 46.0988 57.1321 47.318 52.9117 49.7565C49.029 52.0073 46.8907 54.9522 46.8907 58.0471C46.8907 61.1608 49.0665 64.1244 53.0055 66.394C61.465 71.2708 75.1952 71.2708 83.5983 66.394C87.481 64.1432 89.6194 61.1983 89.6194 58.1034C89.6194 54.9897 87.4435 52.0261 83.5045 49.7565C79.2842 47.318 73.7321 46.0988 68.1988 46.0988Z" fill="#0C5AE5"/>
<path d="M90.5583 58.16L90.5395 67.1259C90.5395 70.4084 88.3637 73.6909 84.0496 76.2043C75.365 81.25 61.241 81.25 52.5189 76.2043C48.1298 73.6721 45.9352 70.3334 45.9352 67.0134L45.9539 58.0475C45.9352 61.3675 48.1485 64.7063 52.5377 67.2385C61.2785 72.2841 75.4026 72.2841 84.0683 67.2385C88.4012 64.725 90.5583 61.4425 90.5583 58.16Z" fill="#D4DDFC"/>
<path d="M68.3115 80.8928C62.4218 80.8928 56.5508 79.5985 52.0491 77.0101C47.4911 74.3841 44.9777 70.8202 44.9964 66.9938L45.0152 58.0279C45.0152 57.5027 45.4279 57.09 45.9531 57.09C46.4783 57.0713 46.8909 57.5215 46.8909 58.0279C46.8909 61.1603 49.048 64.1239 53.0057 66.4123C61.4652 71.2891 75.1953 71.2891 83.5985 66.4123C87.4625 64.1615 89.6008 61.2354 89.6195 58.1592C89.6195 57.634 90.0322 57.2213 90.5574 57.2213C91.0826 57.2213 91.4952 57.6528 91.4952 58.1592L91.4765 67.1251C91.4577 70.8953 89.0006 74.4028 84.5364 77.0101C80.0534 79.5985 74.1825 80.8928 68.3115 80.8928ZM46.8909 63.5425L46.8722 66.9938C46.8722 70.1262 49.0292 73.0898 52.987 75.3782C61.4464 80.2738 75.1766 80.2738 83.5798 75.3782C87.4437 73.1273 89.582 70.2012 89.6008 67.1063L89.6195 63.655C88.4378 65.2869 86.7497 66.7687 84.5551 68.0254C75.6268 73.2211 61.0713 73.2211 52.0866 68.0254C49.817 66.7312 48.0726 65.2119 46.8909 63.5425Z" fill="#0C5AE5"/>
<path d="M83.9744 37.1149C92.7152 42.1606 92.7527 50.3387 84.0682 55.3843C75.3837 60.43 61.2596 60.43 52.5375 55.3843C43.7967 50.3387 43.7592 42.1606 52.4438 37.1149C61.1283 32.0693 75.2336 32.0693 83.9744 37.1149Z" fill="white"/>
<path d="M68.3301 60.0729C62.4403 60.0729 56.5694 58.7787 52.0677 56.1902C47.5285 53.5642 45.015 50.0191 45.015 46.2114C45.015 42.4225 47.4722 38.8962 51.9551 36.2889C60.8835 31.112 75.4578 31.0932 84.4424 36.2889C88.9816 38.9149 91.4951 42.46 91.4951 46.2677C91.4951 50.0566 89.0379 53.5829 84.5549 56.1902C80.0908 58.7787 74.2198 60.0729 68.3301 60.0729ZM68.1988 34.2632C62.6654 34.2632 57.1321 35.4824 52.9117 37.9208C49.029 40.1716 46.8907 43.1165 46.8907 46.2114C46.8907 49.3251 49.0665 52.2887 53.0055 54.5771C61.465 59.4539 75.1952 59.4727 83.5983 54.5771C87.481 52.3262 89.6194 49.3814 89.6194 46.2864C89.6194 43.1728 87.4435 40.2092 83.5045 37.9395C79.2842 35.4824 73.7321 34.2632 68.1988 34.2632Z" fill="#0C5AE5"/>
<path d="M90.5583 46.3059L90.5395 55.2718C90.5395 58.5543 88.3637 61.8368 84.0496 64.3502C75.365 69.3959 61.241 69.3959 52.5189 64.3502C48.1298 61.818 45.9352 58.4792 45.9352 55.1592L45.9539 46.1934C45.9352 49.5134 48.1485 52.8521 52.5377 55.3843C61.2785 60.43 75.4026 60.43 84.0683 55.3843C88.4012 52.8709 90.5583 49.5884 90.5583 46.3059Z" fill="#D4DDFC"/>
<path d="M68.3115 69.0387C62.4405 69.0387 56.5508 67.7445 52.0491 65.156C47.4911 62.53 44.9777 58.9661 44.9964 55.1397L45.0152 46.1738C45.0152 45.6486 45.4279 45.236 45.9531 45.236C46.4783 45.236 46.8909 45.6674 46.8909 46.1738C46.8909 49.3062 49.048 52.2699 53.0057 54.5582C61.4652 59.4351 75.1953 59.4538 83.5985 54.5582C87.4625 52.3074 89.6008 49.3813 89.6195 46.2864C89.6195 45.7612 90.0322 45.3485 90.5574 45.3485C91.0826 45.3485 91.4952 45.7799 91.4952 46.2864L91.4765 55.2522C91.4577 59.0224 89.0006 62.53 84.5364 65.1372C80.0534 67.7445 74.1825 69.0387 68.3115 69.0387ZM46.8909 51.7072L46.8722 55.1397C46.8722 58.2721 49.0292 61.2357 52.987 63.5241C61.4464 68.4197 75.1766 68.4197 83.5798 63.5241C87.4437 61.2733 89.582 58.3472 89.6008 55.271L89.6195 51.8197C88.4378 53.4516 86.7497 54.9334 84.5551 56.1901C75.6268 61.367 61.0525 61.3858 52.0866 56.1901C49.817 54.8959 48.0726 53.3765 46.8909 51.7072Z" fill="#0C5AE5"/>
<path d="M96.7136 25.5624L102.678 22.0923C104.873 24.0993 104.723 25.056 103.241 25.9188C101.59 26.8754 98.9269 26.7816 96.7136 25.5624ZM103.035 20.7793C100.896 18.7723 101.122 17.8532 102.585 16.9904C104.141 16.0901 106.786 16.1651 108.943 17.3468L103.035 20.7793ZM111.719 16.2964C111.438 16.1276 110.95 16.1276 110.669 16.2964L109.844 16.7653C107.143 15.2648 103.56 15.1335 101.384 16.4089C99.2271 17.6657 99.3771 19.1287 101.928 21.4171L95.7758 24.9997C94.2564 23.9305 93.5999 22.7676 93.5062 21.4171C93.5062 21.3421 93.4499 21.2295 93.2623 21.117C92.981 20.9482 92.4558 20.9482 92.1744 21.117C91.9868 21.2295 91.9493 21.3608 91.9681 21.5109C92.1744 23.0865 93.0372 24.3807 94.7629 25.5436L93.056 26.5378C92.7746 26.7066 92.7746 26.9879 93.056 27.138C93.3373 27.3068 93.825 27.3068 94.1064 27.138L95.7758 26.1626C98.5706 27.6632 102.134 27.8508 104.423 26.519C106.542 25.281 106.374 23.7805 103.766 21.4734L109.806 17.9658C110.819 18.6973 111.438 19.5601 111.663 20.6668C111.682 20.8356 111.776 20.9106 111.907 20.9857C112.207 21.1545 112.713 21.1732 113.014 20.9857C113.22 20.8544 113.257 20.7231 113.201 20.5167C112.901 19.3538 112.282 18.3784 110.856 17.4031L111.719 16.8966C112.001 16.7278 112.001 16.4652 111.719 16.2964Z" fill="#0C5AE5"/>
<path d="M62.365 49.1024L68.3297 45.6323C70.5243 47.6393 70.3743 48.596 68.8924 49.4588C67.2418 50.4154 64.5783 50.3216 62.365 49.1024ZM68.6861 44.3193C66.5666 42.3123 66.7729 41.3745 68.2359 40.5304C69.7928 39.6301 72.4375 39.7051 74.5946 40.8868L68.6861 44.3193ZM77.3706 39.8176C77.0893 39.6488 76.6016 39.6488 76.3203 39.8176L75.4949 40.2866C72.7939 38.786 69.2113 38.6547 67.0355 39.9302C64.8784 41.1869 65.0285 42.65 67.5794 44.9383L61.4271 48.5209C59.9078 47.4518 59.2513 46.2888 59.1575 44.9383C59.1575 44.8633 59.1012 44.7508 58.9137 44.6382C58.6323 44.4694 58.1071 44.4694 57.8258 44.6382C57.6382 44.7508 57.6007 44.8821 57.6194 45.0321C57.8258 46.6077 58.6886 47.9019 60.4142 49.0649L58.7073 50.059C58.426 50.2278 58.426 50.5092 58.7073 50.6592C58.9887 50.828 59.4764 50.828 59.7577 50.6592L61.4271 49.6839C64.2219 51.1844 67.7858 51.372 70.0741 50.0402C72.1937 48.8023 72.0249 47.3017 69.4176 44.9946L75.4574 41.487C76.4703 42.2185 77.0893 43.0814 77.3144 44.188C77.3331 44.3569 77.4269 44.4319 77.5582 44.5069C77.8583 44.6757 78.3648 44.6945 78.6649 44.5069C78.8712 44.3756 78.9087 44.2443 78.8525 44.038C78.5523 42.875 77.9334 41.8997 76.5078 40.9243L77.3706 40.4179C77.652 40.2678 77.652 39.9865 77.3706 39.8176Z" fill="#0C5AE5"/>
<path d="M123.479 79.1096C132.22 84.1553 132.257 92.3333 123.573 97.379C114.888 102.425 100.764 102.425 92.0422 97.379C83.3014 92.3333 83.2639 84.1553 91.9484 79.1096C100.633 74.0827 114.738 74.064 123.479 79.1096Z" fill="white"/>
<path d="M107.834 102.086C101.963 102.086 96.0732 100.792 91.5715 98.2033C87.0322 95.5773 84.5188 92.0322 84.5188 88.2246C84.5188 84.4356 86.976 80.9093 91.4589 78.3021C100.387 73.1063 114.962 73.1063 123.946 78.3021C128.485 80.928 130.999 84.4731 130.999 88.2808C130.999 92.0698 128.542 95.5961 124.059 98.2033C119.595 100.792 113.724 102.086 107.834 102.086ZM107.703 76.2575C102.169 76.2575 96.6359 77.4767 92.4155 79.9339C88.5328 82.1848 86.3945 85.1296 86.3945 88.2246C86.3945 91.3382 88.5703 94.3018 92.5093 96.5714C100.969 101.467 114.699 101.467 123.102 96.5714C126.985 94.3206 129.123 91.3757 129.123 88.2808C129.123 85.1671 126.947 82.2035 123.008 79.9339C118.788 77.4767 113.236 76.2575 107.703 76.2575Z" fill="#0C5AE5"/>
<path d="M130.063 88.3192L130.044 97.2851C130.044 100.568 127.868 103.85 123.554 106.364C114.869 111.409 100.745 111.409 92.0233 106.364C87.6342 103.831 85.4396 100.493 85.4396 97.1725L85.4583 88.2067C85.4583 91.5267 87.6529 94.8654 92.0421 97.3976C100.783 102.443 114.907 102.443 123.573 97.3976C127.906 94.8842 130.063 91.6017 130.063 88.3192Z" fill="#D4DDFC"/>
<path d="M107.816 111.052C101.927 111.052 96.0556 109.758 91.5539 107.169C86.9959 104.543 84.4824 100.979 84.5012 97.153L84.52 88.1871C84.52 87.6619 84.9326 87.2493 85.4578 87.2493C85.983 87.2493 86.3957 87.6807 86.3957 88.1871C86.3957 91.3196 88.5527 94.2832 92.5105 96.5715C100.97 101.467 114.7 101.467 123.103 96.5715C126.967 94.3207 129.106 91.3946 129.124 88.3184C129.124 87.7932 129.537 87.2868 130.062 87.3806C130.587 87.3806 131 87.812 131 88.3184L130.981 97.2843C130.962 101.054 128.505 104.562 124.041 107.169C119.558 109.758 113.687 111.052 107.816 111.052ZM86.3957 93.7017L86.3769 97.153C86.3769 100.285 88.534 103.249 92.4917 105.537C100.951 110.414 114.681 110.433 123.085 105.537C126.948 103.287 129.087 100.36 129.106 97.2655L129.124 93.8142C127.943 95.4461 126.254 96.9279 124.06 98.1846C115.132 103.38 100.576 103.38 91.5914 98.1846C89.3218 96.8904 87.5774 95.3711 86.3957 93.7017Z" fill="#0C5AE5"/>
<path d="M101.27 91.6384L107.235 88.1684C109.429 90.1754 109.279 91.132 107.798 91.9948C106.147 92.9514 103.483 92.8577 101.27 91.6384ZM107.591 86.8554C105.453 84.8484 105.659 83.9293 107.141 83.0665C108.679 82.1661 111.324 82.2411 113.481 83.4416L107.591 86.8554ZM116.276 82.3724C115.994 82.2036 115.507 82.2036 115.244 82.3724L114.419 82.8414C111.699 81.3596 108.135 81.2095 105.941 82.485C103.784 83.7417 103.952 85.2048 106.503 87.5119L100.351 91.0945C98.8317 90.0066 98.1752 88.8624 98.0814 87.5119C98.1002 87.4369 98.0439 87.3056 97.8563 87.193C97.575 87.0242 97.0498 87.0242 96.7684 87.193C96.5621 87.3056 96.5246 87.4369 96.5433 87.6057C96.7497 89.1813 97.5937 90.4567 99.3381 91.6384L97.6312 92.6326C97.3499 92.7826 97.3499 93.064 97.65 93.2328C97.9314 93.3829 98.4003 93.3829 98.6816 93.2328L100.37 92.2574C103.165 93.7767 106.728 93.9643 109.017 92.6326C111.136 91.3946 110.968 89.8753 108.36 87.5682L114.4 84.0606C115.413 84.7921 116.013 85.6549 116.257 86.7616C116.276 86.9304 116.37 87.0054 116.482 87.0805C116.801 87.268 117.289 87.268 117.589 87.0992C117.795 86.9679 117.833 86.8366 117.776 86.6303C117.476 85.4486 116.857 84.492 115.413 83.5166L116.276 83.0102C116.557 82.8039 116.538 82.5225 116.276 82.3724Z" fill="#0C5AE5"/>
</svg>
