<svg width="150" height="114" viewBox="0 0 150 114" fill="none" xmlns="http://www.w3.org/2000/svg">
<rect y="5.0271" width="108.808" height="108.808" rx="54.4041" fill="#2253FF"/>
<path d="M123.101 10.4703L108.305 19.0819L93.4011 10.4703L108.215 1.87665L123.101 10.4703Z" fill="white"/>
<path d="M108.305 19.9806C108.143 19.9806 108 19.9447 107.856 19.8548L92.9518 11.2612C92.6821 11.0994 92.5023 10.8117 92.5023 10.4881C92.5023 10.1645 92.6641 9.87683 92.9518 9.71503L107.748 1.12141C108.018 0.95961 108.377 0.95961 108.647 1.12141L123.551 9.71503C123.82 9.87683 124 10.1645 124 10.4881C124 10.8117 123.838 11.0994 123.551 11.2612L108.755 19.8548C108.611 19.9447 108.467 19.9806 108.305 19.9806ZM95.1991 10.4701L108.305 18.039L121.321 10.4701L108.215 2.90126L95.1991 10.4701Z" fill="#0C5AE5"/>
<path d="M123.101 10.4702L122.885 67.5512L108.089 76.1628L108.305 19.0818L123.101 10.4702Z" fill="#D4DDFC"/>
<path d="M108.089 77.0617C107.927 77.0617 107.783 77.0257 107.64 76.9358C107.352 76.774 107.19 76.4684 107.19 76.1448L107.406 19.0638C107.406 18.7402 107.586 18.4525 107.855 18.2907L122.651 9.6971C122.921 9.53529 123.281 9.53529 123.55 9.6971C123.838 9.8589 124 10.1645 124 10.4881L123.784 67.5692C123.784 67.8928 123.604 68.1804 123.335 68.3422L108.538 76.9358C108.395 77.0257 108.233 77.0617 108.089 77.0617ZM109.204 19.6031L108.988 74.5987L121.986 67.0478L122.202 12.0523L109.204 19.6031Z" fill="#0C5AE5"/>
<path d="M108.304 19.0818L108.089 76.1628L93.1847 67.5512L93.4004 10.4702L108.304 19.0818Z" fill="white"/>
<path d="M108.089 77.0617C107.927 77.0617 107.783 77.0257 107.639 76.9358L92.7352 68.3422C92.4476 68.1804 92.2858 67.8748 92.2858 67.5512L92.5015 10.4702C92.5015 10.1466 92.6813 9.8589 92.951 9.6971C93.2206 9.53529 93.5622 9.53529 93.8499 9.6971L108.754 18.2907C109.042 18.4525 109.203 18.7581 109.203 19.0818L108.988 76.1628C108.988 76.4864 108.808 76.774 108.538 76.9358C108.394 77.0257 108.232 77.0617 108.089 77.0617ZM94.0836 67.0478L107.19 74.6166L107.405 19.6031L94.2993 12.0343L94.0836 67.0478Z" fill="#0C5AE5"/>
<path d="M100.628 44.0536L85.8139 52.6652L70.9279 44.0536L85.724 35.46L100.628 44.0536Z" fill="white"/>
<path d="M85.8143 53.564C85.6525 53.564 85.5086 53.528 85.3648 53.4381L70.4608 44.8445C70.1911 44.6827 70.0114 44.3951 70.0114 44.0715C70.0114 43.7479 70.1732 43.4602 70.4608 43.2984L85.2569 34.7048C85.5266 34.543 85.8862 34.543 86.1558 34.7048L101.06 43.2984C101.33 43.4602 101.509 43.7479 101.509 44.0715C101.509 44.3951 101.347 44.6827 101.06 44.8445L86.2637 53.4381C86.1379 53.5101 85.9761 53.564 85.8143 53.564ZM72.7261 44.0535L85.8322 51.6223L98.8485 44.0535L85.7423 36.4846L72.7261 44.0535Z" fill="#0C5AE5"/>
<path d="M100.628 44.0535L100.412 79.992L85.5983 88.5856L85.814 52.6651L100.628 44.0535Z" fill="#D4DDFC"/>
<path d="M85.5979 89.4845C85.4361 89.4845 85.2923 89.4485 85.1484 89.3586C84.8608 89.1968 84.699 88.8912 84.699 88.5676L84.9147 52.629C84.9147 52.3054 85.0945 52.0178 85.3642 51.856L100.16 43.2623C100.43 43.1005 100.79 43.1005 101.059 43.2623C101.347 43.4241 101.509 43.7298 101.509 44.0534L101.293 79.992C101.293 80.3156 101.113 80.6032 100.843 80.765L86.0473 89.3586C85.9215 89.4485 85.7597 89.4845 85.5979 89.4845ZM86.7125 53.1684L86.5148 87.0215L99.5131 79.4706L99.7108 45.6175L86.7125 53.1684Z" fill="#0C5AE5"/>
<path d="M85.8135 52.6651L85.5978 88.5856L70.7118 79.992L70.9275 44.0535L85.8135 52.6651Z" fill="white"/>
<path d="M85.5982 89.4845C85.4364 89.4845 85.2926 89.4485 85.1487 89.3586L70.2447 80.765C69.9571 80.6032 69.7953 80.2976 69.7953 79.974L70.011 44.0354C70.011 43.7118 70.1908 43.4241 70.4605 43.2623C70.7302 43.1005 71.0717 43.1005 71.3594 43.2623L86.2634 51.856C86.551 52.0178 86.7128 52.3234 86.7128 52.647L86.4971 88.5856C86.4971 88.9092 86.3173 89.1968 86.0476 89.3586C85.9038 89.4485 85.76 89.4845 85.5982 89.4845ZM71.6111 79.4706L84.7173 87.0394L84.933 53.1684L71.8268 45.5995L71.6111 79.4706Z" fill="#0C5AE5"/>
<path d="M78.1377 73.8612L63.3416 82.4728L48.4376 73.8792L63.2337 65.2676L78.1377 73.8612Z" fill="white"/>
<path d="M63.3416 83.3718C63.1798 83.3718 63.036 83.3358 62.8921 83.2459L47.9882 74.6523C47.7185 74.4905 47.5387 74.2029 47.5387 73.8793C47.5387 73.5557 47.7005 73.268 47.9882 73.1062L62.7843 64.5126C63.0539 64.3508 63.4135 64.3508 63.6832 64.5126L78.5872 73.1062C78.8568 73.268 79.0366 73.5557 79.0366 73.8793C79.0366 74.2029 78.8748 74.4905 78.5872 74.6523L63.7911 83.2459C63.6472 83.3358 63.5034 83.3718 63.3416 83.3718ZM50.2354 73.8613L63.3416 81.4301L76.3579 73.8613L63.2517 66.2924L50.2354 73.8613Z" fill="#0C5AE5"/>
<path d="M78.1371 73.8613L77.9214 92.4149L63.1252 101.026L63.341 82.4729L78.1371 73.8613Z" fill="#D4DDFC"/>
<path d="M63.1254 101.925C62.9635 101.925 62.8197 101.889 62.6759 101.799C62.3882 101.638 62.2264 101.332 62.2264 101.008L62.4422 82.4548C62.4422 82.1312 62.622 81.8436 62.8916 81.6818L77.6878 73.0882C77.9574 72.9263 78.317 72.9263 78.5867 73.0882C78.8743 73.25 79.0361 73.5556 79.0361 73.8792L78.8204 92.4328C78.8204 92.7564 78.6406 93.044 78.3709 93.2058L63.5748 101.799C63.431 101.889 63.2692 101.925 63.1254 101.925ZM64.24 82.9942L64.0422 99.4443L77.0405 91.8934L77.2383 75.4433L64.24 82.9942Z" fill="#0C5AE5"/>
<path d="M63.3409 82.473L63.1252 101.027L48.2212 92.415L48.4369 73.8794L63.3409 82.473Z" fill="white"/>
<path d="M63.125 101.925C62.9632 101.925 62.8194 101.889 62.6756 101.799L47.7716 93.2058C47.4839 93.044 47.3221 92.7384 47.3221 92.4148L47.5379 73.8612C47.5379 73.5376 47.7177 73.25 47.9873 73.0882C48.257 72.9263 48.5986 72.9263 48.8863 73.0882L63.7902 81.6818C64.0779 81.8436 64.2397 82.1492 64.2397 82.4728L64.024 101.026C64.024 101.35 63.8442 101.638 63.5745 101.799C63.4307 101.889 63.2689 101.925 63.125 101.925ZM49.12 91.9114L62.2261 99.4803L62.4239 82.9942L49.3177 75.4253L49.12 91.9114Z" fill="#0C5AE5"/>
</svg>
