<svg width="43" height="44" viewBox="0 0 43 44" fill="none" xmlns="http://www.w3.org/2000/svg">
<circle cx="21.2354" cy="22.0786" r="21.2354" fill="#2253FF"/>
<path d="M26.5539 9.07812H15.9171C14.2861 9.07812 12.9624 10.4018 12.9624 12.0328V32.1245C12.9624 33.7555 14.2861 35.0792 15.9171 35.0792H26.5539C28.1848 35.0792 29.5085 33.7555 29.5085 32.1245V12.0328C29.5085 10.4018 28.1848 9.07812 26.5539 9.07812ZM21.2355 32.8632C20.5003 32.8632 19.9059 32.2687 19.9059 31.5336C19.9059 30.7984 20.5003 30.204 21.2355 30.204C21.9706 30.204 22.5651 30.7984 22.5651 31.5336C22.5651 32.2687 21.9706 32.8632 21.2355 32.8632ZM25.9629 29.1698H16.508C15.8556 29.1698 15.3261 28.6404 15.3261 27.988V13.8056C15.3261 13.1532 15.8556 12.6237 16.508 12.6237H25.9629C26.6153 12.6237 27.1448 13.1532 27.1448 13.8056V27.988C27.1448 28.6404 26.6153 29.1698 25.9629 29.1698Z" fill="white"/>
</svg>
