<svg width="150" height="114" viewBox="0 0 150 114" fill="none" xmlns="http://www.w3.org/2000/svg">
<rect y="4.60944" width="108.812" height="108.812" rx="54.4058" fill="#2253FF"/>
<g clip-path="url(#clip0)">
<path d="M113.545 53.9755L84.5145 70.7303C80.4663 73.073 76.793 73.2792 74.1317 71.7424L89.6122 80.7383C92.2735 82.2751 95.9468 82.0689 99.995 79.7262L129.025 62.9714L113.545 53.9755Z" fill="white"/>
<path d="M93.4543 82.6686C91.88 82.6686 90.4369 82.2938 89.1437 81.5441L73.682 72.567C73.2322 72.3046 73.0823 71.7423 73.3447 71.2925C73.6071 70.8427 74.188 70.6928 74.6191 70.9552C77.093 72.3983 80.4477 72.0235 84.0461 69.9432L113.077 53.1883C113.358 53.0196 113.733 53.0196 114.014 53.1883L129.494 62.1842C129.775 62.3529 129.963 62.6527 129.963 62.9901C129.963 63.3274 129.775 63.6273 129.494 63.796L100.464 80.5508C98.0085 81.9564 95.6283 82.6686 93.4543 82.6686ZM79.192 73.5977L90.0808 79.9136C92.5547 81.3567 95.8907 81.0006 99.5078 78.9016L127.133 62.9526L113.526 55.0437L84.9644 71.5362C82.9778 72.6981 81.0287 73.3916 79.192 73.5977Z" fill="#0C5AE5"/>
<path d="M129.007 62.9714L126.758 64.2645L99.9949 79.7262C91.9548 84.3741 85.3953 80.6258 85.3578 71.3863C85.339 62.1467 91.8611 50.8456 99.9012 46.2165L128.932 29.4616L128.857 9.93298L98.7017 27.3438C90.268 32.2166 82.3591 40.5566 76.3993 50.8644C70.4583 61.1534 67.1973 72.1734 67.216 81.8628C67.2722 101.879 81.4783 109.975 98.8891 99.9108L129.044 82.5L129.007 62.9714Z" fill="#D4DDFC"/>
<path d="M84.7579 105.177C81.5718 105.177 78.6294 104.427 76.0243 102.928C69.7647 99.3297 66.2975 91.8519 66.2788 81.8439C66.26 72.0046 69.5585 60.8347 75.5933 50.3957C81.6093 39.9567 89.6494 31.4856 98.233 26.5378L128.388 9.12699C128.669 8.95832 129.025 8.95832 129.325 9.12699C129.606 9.29567 129.794 9.59553 129.794 9.93288L129.85 29.4615C129.85 29.7988 129.681 30.0987 129.381 30.2674L100.351 47.0223C92.5731 51.5202 86.2572 62.4465 86.2759 71.3862C86.2947 75.4906 87.644 78.5267 90.0992 79.9323C92.5731 81.3566 95.909 80.9818 99.5074 78.9015L128.538 62.1466C128.819 61.978 129.175 61.978 129.475 62.1466C129.756 62.3153 129.944 62.6152 129.944 62.9525L130 82.4811C130 82.8185 129.831 83.1183 129.531 83.287L99.3762 100.698C94.241 103.678 89.2746 105.177 84.7579 105.177ZM127.919 11.5446L99.1701 28.1496C90.8676 32.9474 83.0711 41.1749 77.2238 51.3141C71.3577 61.4719 68.1529 72.3045 68.1717 81.8439C68.1904 91.1397 71.3202 98.0553 76.9801 101.298C82.6776 104.577 90.3053 103.79 98.4391 99.0861L128.126 81.9376L128.069 64.583L100.444 80.532C96.2464 82.9497 92.2357 83.3245 89.1621 81.5628C86.1072 79.8011 84.4205 76.2027 84.4018 71.3862C84.383 61.8468 91.1112 50.1896 99.4137 45.3917L127.976 28.8993L127.919 11.5446Z" fill="#0C5AE5"/>
<path d="M113.395 0.937012L83.2216 18.3478C74.7879 23.2206 66.879 31.5606 60.9192 41.8684C54.9782 52.1575 51.7172 63.1775 51.7359 72.8668C51.7547 82.7998 55.2781 89.8091 60.9567 93.1076L76.4372 102.104C70.7585 98.805 67.2539 91.8144 67.2164 81.8627C67.1976 72.1734 70.4399 61.1721 76.3997 50.8643C82.3407 40.5752 90.2684 32.2165 98.7021 27.3438L128.857 9.93292L113.395 0.937012Z" fill="white"/>
<path d="M76.4558 103.021C76.2871 103.021 76.1372 102.983 75.9873 102.89L60.5068 93.8936C54.2846 90.2953 50.8549 82.8174 50.8175 72.8657C50.78 63.0077 54.0972 51.8378 60.1132 41.3988C66.148 30.9598 74.1881 22.4886 82.7529 17.5409L112.908 0.130045C113.189 -0.0386283 113.564 -0.0386283 113.845 0.130045L129.325 9.12595C129.607 9.29463 129.794 9.59449 129.794 9.93184C129.794 10.2692 129.607 10.569 129.325 10.7377L99.1705 28.1486C90.868 32.9464 83.0715 41.1739 77.2242 51.313C71.3581 61.4709 68.1533 72.3035 68.1721 81.8429C68.1908 91.1012 71.3019 97.998 76.9243 101.278C77.3741 101.54 77.5241 102.102 77.2617 102.552C77.093 102.852 76.7744 103.021 76.4558 103.021ZM113.376 2.02293L83.69 19.1714C75.3875 23.9692 67.5911 32.1967 61.7437 42.3358C55.8777 52.4937 52.6729 63.3263 52.6916 72.847C52.7103 82.1053 55.8214 89.0021 61.4439 92.2819L70.2711 97.417C67.6848 93.4626 66.2979 88.1588 66.2792 81.8616C66.2604 72.0036 69.5589 60.8337 75.5937 50.3947C81.6097 39.9557 89.6498 31.4845 98.2334 26.5368L126.983 9.93184L113.376 2.02293Z" fill="#0C5AE5"/>
<path d="M108.298 40.9875V21.9461L92.7235 13.1564L113.395 0.936951L128.857 9.93286L128.913 29.4427L108.298 40.9875Z" fill="#5F87ED"/>
<path d="M108.298 41.9246C108.129 41.9246 107.979 41.8871 107.829 41.7934C107.548 41.6247 107.36 41.3248 107.36 40.9875V22.4897L92.2736 13.981C91.9737 13.8124 91.8051 13.5125 91.8051 13.1751C91.8051 12.8378 91.9737 12.5379 92.2736 12.3505L112.927 0.131083C113.208 -0.0375907 113.583 -0.0375907 113.883 0.131083L129.363 9.12699C129.644 9.29566 129.832 9.59553 129.832 9.93287L129.888 29.4615C129.888 29.7988 129.7 30.1174 129.4 30.2861L108.785 41.8309C108.616 41.8871 108.466 41.9246 108.298 41.9246ZM94.5975 13.1377L108.747 21.1215C109.047 21.2902 109.216 21.6088 109.216 21.9462V39.3945L127.957 28.8992L127.901 10.4576L113.376 2.00523L94.5975 13.1377Z" fill="#0C5AE5"/>
<path d="M108.297 94.4757V75.4344L129.007 62.9713L129.063 82.4812L108.297 94.4757Z" fill="#5F87ED"/>
<path d="M108.298 95.4128C108.129 95.4128 107.979 95.3753 107.829 95.2816C107.548 95.113 107.361 94.8131 107.361 94.4757V75.4344C107.361 75.0971 107.529 74.7972 107.811 74.6285L128.52 62.1654C128.801 61.9968 129.176 61.978 129.457 62.1467C129.757 62.3154 129.925 62.6152 129.925 62.9526L129.982 82.4812C129.982 82.8185 129.813 83.1184 129.513 83.2871L108.748 95.2816C108.616 95.3753 108.466 95.4128 108.298 95.4128ZM109.235 75.9592V92.864L128.126 81.9564L128.07 64.6206L109.235 75.9592Z" fill="#0C5AE5"/>
<path d="M129.663 9.4642C129.401 9.0144 128.838 8.86447 128.389 9.12685L107.829 21.1401C107.379 21.4025 107.23 21.9835 107.492 22.4146C107.661 22.7144 107.979 22.8831 108.298 22.8831C108.466 22.8831 108.616 22.8456 108.766 22.7519L129.326 10.7386C129.776 10.4762 129.925 9.89525 129.663 9.4642Z" fill="#0C5AE5"/>
<path d="M108.297 75.4345L92.0858 66.3636L113.545 53.9755L129.007 62.9714L108.297 75.4345Z" fill="#5F87ED"/>
<path d="M108.297 76.3714C108.147 76.3714 107.979 76.3339 107.848 76.259L91.6362 67.1881C91.3363 67.0194 91.1677 66.7196 91.1489 66.3822C91.1489 66.0449 91.3176 65.7263 91.6175 65.5576L113.076 53.1695C113.358 53.0008 113.732 53.0008 114.014 53.1695L129.494 62.1654C129.775 62.3341 129.963 62.6339 129.963 62.9713C129.963 63.3086 129.794 63.6085 129.513 63.7771L108.803 76.2402C108.635 76.3152 108.466 76.3714 108.297 76.3714ZM93.9789 66.3447L108.279 74.3473L127.17 62.99L113.545 55.0624L93.9789 66.3447Z" fill="#0C5AE5"/>
</g>
<defs>
<clipPath id="clip0">
<rect x="50.8173" width="79.1827" height="105.177" fill="white"/>
</clipPath>
</defs>
</svg>
